<svg xmlns="http://www.w3.org/2000/svg" xmlns:xlink="http://www.w3.org/1999/xlink" xmlns:fi="http://pattern.flaticon.com/" x="0" y="0" width="700" height="350" viewBox="0 0 700 350"><rect x="0px" y="0px" width="100%" height="100%" opacity="1" fill="#ffffff"/><defs><g transform="matrix(0.14386496084210107 -0.038548500076776064 0.038548500076776064 0.14386496084210107 132.15046571247788 150.22971224848584)" id="L1_0"><path d="M219.154,264.417c-2.392-2.111-4.734-4.296-7.01-6.572c-2.276-2.276-4.461-4.619-6.573-7.011   L17.801,438.603c-3.745,3.744-3.745,9.838,0,13.584c3.744,3.744,9.839,3.745,13.584-0.001L219.154,264.417z" fill="#ffffff"/><path d="M415.142,54.846C389.447,29.151,355.284,15,318.946,15c-36.339,0-70.502,14.15-96.196,39.846   c-25.695,25.694-39.846,59.857-39.846,96.196c0,27.995,8.407,54.695,24.013,77.23l66.194-66.194c9.594-9.592,25.203-9.592,34.797,0   c9.594,9.595,9.594,25.204,0.001,34.798l-7.071,7.071c-2.93,2.928-7.678,2.928-10.607,0l-10.605,10.605   c2.929,2.93,2.929,7.678,0,10.607l-37.91,37.91c22.536,15.606,49.235,24.013,77.231,24.013c36.338,0,70.501-14.15,96.195-39.846   c25.696-25.694,39.847-59.857,39.847-96.195C454.988,114.704,440.838,80.54,415.142,54.846z M336.543,38.671   c-0.366,4.127-4.013,7.165-8.134,6.808c-31.44-2.791-62.221,8.354-84.445,30.58c-1.465,1.464-3.385,2.196-5.304,2.196   s-3.839-0.732-5.303-2.196c-2.929-2.93-2.929-7.678,0-10.607c25.375-25.374,60.504-38.101,96.378-34.914   C333.861,30.904,336.909,34.545,336.543,38.671z M404.536,76.058c-1.465,1.465-3.385,2.197-5.304,2.197s-3.839-0.732-5.303-2.196   c-10.919-10.918-23.763-19.146-38.176-24.453c-3.887-1.432-5.878-5.743-4.446-9.63s5.744-5.877,9.63-4.446   c16.465,6.064,31.133,15.458,43.598,27.922C407.465,68.38,407.465,73.129,404.536,76.058z" fill="#e7453f"/><path d="M290.23,203.948c-2.929-2.93-2.929-7.678,0-10.607l7.071-7.071c3.745-3.744,3.745-9.838,0-13.584   c-3.744-3.744-9.839-3.745-13.583,0.001l-67.522,67.522c2.094,2.406,4.276,4.753,6.553,7.03c2.277,2.277,4.624,4.459,7.03,6.553   l39.238-39.238c2.93-2.928,7.678-2.928,10.607,0L290.23,203.948z" fill="#f5b5b2"/><path d="M360.937,37.53c-3.886-1.431-8.198,0.56-9.63,4.446s0.56,8.198,4.446,9.63   c14.413,5.308,27.257,13.535,38.176,24.453c1.464,1.464,3.384,2.196,5.303,2.196s3.839-0.732,5.304-2.197   c2.929-2.929,2.929-7.678-0.001-10.606C392.07,52.988,377.402,43.594,360.937,37.53z" fill="#ffffff"/><path d="M329.735,30.538c-35.874-3.187-71.004,9.54-96.378,34.914c-2.929,2.93-2.929,7.678,0,10.607   c1.464,1.464,3.384,2.196,5.303,2.196s3.839-0.732,5.304-2.196c22.225-22.226,53.005-33.371,84.445-30.58   c4.121,0.357,7.768-2.681,8.134-6.808C336.909,34.545,333.861,30.904,329.735,30.538z" fill="#ffffff"/><path d="M425.749,44.239C397.221,15.711,359.291,0,318.946,0s-78.275,15.711-106.803,44.238   c-28.528,28.528-44.24,66.458-44.24,106.804c0,32.018,9.905,62.51,28.249,87.994L7.195,427.996c-9.593,9.594-9.593,25.203,0,34.798   c4.797,4.796,11.098,7.194,17.398,7.194c6.301,0,12.602-2.398,17.399-7.194l188.959-188.959   c25.484,18.344,55.977,28.249,87.995,28.249c40.345,0,78.274-15.711,106.802-44.238c28.529-28.528,44.24-66.458,44.24-106.803   C469.988,110.697,454.277,72.767,425.749,44.239z M318.946,287.083c-27.996,0-54.696-8.407-77.231-24.013l37.91-37.91   c2.929-2.93,2.929-7.678,0-10.607c-2.93-2.928-7.678-2.928-10.607,0l-39.238,39.238c-2.406-2.094-4.753-4.276-7.03-6.553   c-2.277-2.277-4.459-4.624-6.553-7.03l67.522-67.522c3.744-3.746,9.839-3.745,13.583-0.001c3.745,3.746,3.745,9.84,0,13.584   l-7.071,7.071c-2.929,2.93-2.929,7.678,0,10.607c2.93,2.928,7.678,2.928,10.607,0l7.071-7.071   c9.593-9.594,9.593-25.203-0.001-34.798c-9.594-9.592-25.203-9.592-34.797,0l-66.194,66.194   c-15.606-22.536-24.013-49.235-24.013-77.23c0-36.339,14.151-70.502,39.846-96.196C248.444,29.151,282.607,15,318.946,15   c36.338,0,70.501,14.15,96.195,39.846c25.696,25.694,39.847,59.857,39.847,96.196c0,36.338-14.15,70.501-39.847,96.195   C389.447,272.933,355.284,287.083,318.946,287.083z M17.802,452.187c-3.745-3.746-3.745-9.84,0-13.584L205.57,250.834   c2.112,2.392,4.297,4.735,6.573,7.011c2.276,2.276,4.618,4.461,7.01,6.572L31.386,452.186   C27.641,455.932,21.546,455.931,17.802,452.187z" fill="#3d2a20"/></g><g transform="matrix(0.1489361673593521 0 0 0.1489361673593521 -28 140)" id="L1_1"><path d="M197.28,15v275.155h30.22v-22.5c0-4.142,3.357-7.5,7.5-7.5s7.5,3.358,7.5,7.5v22.5h30.221V15H242.5   v222.655c0,4.142-3.357,7.5-7.5,7.5s-7.5-3.358-7.5-7.5V15H197.28z" fill="#ec6a65"/><path d="M287.72,15v275.155h30.221v-82.5c0-4.142,3.357-7.5,7.5-7.5s7.5,3.358,7.5,7.5v82.5h30.22V67.5   c0-4.142,3.357-7.5,7.5-7.5s7.5,3.358,7.5,7.5v222.655h17.936c2.023,0,3.974,0.304,5.825,0.845V20.825   c0-3.212-2.613-5.825-5.825-5.825h-17.936v22.5c0,4.142-3.357,7.5-7.5,7.5s-7.5-3.358-7.5-7.5V15h-30.22v162.655   c0,4.142-3.357,7.5-7.5,7.5s-7.5-3.358-7.5-7.5V15H287.72z" fill="#ec6a65"/><path d="M73.903,290.155h17.936V67.5c0-4.142,3.357-7.5,7.5-7.5s7.5,3.358,7.5,7.5v222.655h30.221V15   h-30.221v22.5c0,4.142-3.357,7.5-7.5,7.5s-7.5-3.358-7.5-7.5V15H73.903c-3.212,0-5.824,2.613-5.824,5.825v270.175   C69.929,290.459,71.88,290.155,73.903,290.155z" fill="#ec6a65"/><rect x="152px" y="15px" width="30px" height="275px" fill="#ec6a65"/><path d="M396.096,0H73.903C62.42,0,53.079,9.342,53.079,20.825v290.155v138.196   c0,11.483,9.342,20.825,20.824,20.825h322.193c11.483,0,20.825-9.342,20.825-20.825V310.979V20.825   C416.921,9.342,407.58,0,396.096,0z M73.903,15h17.936v22.5c0,4.142,3.357,7.5,7.5,7.5s7.5-3.358,7.5-7.5V15h30.221v275.155   h-30.221V67.5c0-4.142-3.357-7.5-7.5-7.5s-7.5,3.358-7.5,7.5v222.655H73.903c-2.023,0-3.974,0.304-5.824,0.845V20.825   C68.079,17.613,70.691,15,73.903,15z M235,245.155c4.143,0,7.5-3.358,7.5-7.5V15h30.221v275.155H242.5v-22.5   c0-4.142-3.357-7.5-7.5-7.5s-7.5,3.358-7.5,7.5v22.5h-30.22V15h30.22v222.655C227.5,241.797,230.857,245.155,235,245.155z    M325.441,185.155c4.143,0,7.5-3.358,7.5-7.5V15h30.22v22.5c0,4.142,3.357,7.5,7.5,7.5s7.5-3.358,7.5-7.5V15h17.936   c3.212,0,5.825,2.613,5.825,5.825V291c-1.851-0.541-3.802-0.845-5.825-0.845h-17.936V67.5c0-4.142-3.357-7.5-7.5-7.5   s-7.5,3.358-7.5,7.5v222.655h-30.22v-82.5c0-4.142-3.357-7.5-7.5-7.5s-7.5,3.358-7.5,7.5v82.5H287.72V15h30.221v162.655   C317.941,181.797,321.298,185.155,325.441,185.155z M182.28,290.155h-30.221V15h30.221V290.155z M68.079,449.175V310.979   c0-3.212,2.612-5.825,5.824-5.825h322.193c3.212,0,5.825,2.613,5.825,5.825v138.196c0,3.212-2.613,5.825-5.825,5.825H73.903   C70.691,455,68.079,452.387,68.079,449.175z" fill="#3d2a20"/><path d="M401.921,449.175V310.979c0-3.212-2.613-5.825-5.825-5.825H73.903c-3.212,0-5.824,2.613-5.824,5.825   v138.196c0,3.212,2.612,5.825,5.824,5.825h322.193C399.308,455,401.921,452.387,401.921,449.175z M386.921,432.5   c0,4.142-3.357,7.5-7.5,7.5H90.579c-4.143,0-7.5-3.358-7.5-7.5V327.655c0-4.142,3.357-7.5,7.5-7.5h288.843   c4.143,0,7.5,3.358,7.5,7.5V432.5z" fill="#e7453f"/><rect x="290px" y="387px" width="81px" height="37px" fill="#ffffff"/><rect x="194px" y="335px" width="81px" height="37px" fill="#ffffff"/><rect x="98px" y="387px" width="81px" height="37px" fill="#ffffff"/><rect x="290px" y="335px" width="81px" height="37px" fill="#ffffff"/><rect x="194px" y="387px" width="81px" height="37px" fill="#ffffff"/><rect x="98px" y="335px" width="81px" height="37px" fill="#ffffff"/><path d="M379.421,320.155H90.579c-4.143,0-7.5,3.358-7.5,7.5V432.5c0,4.142,3.357,7.5,7.5,7.5h288.843   c4.143,0,7.5-3.358,7.5-7.5V327.655C386.921,323.513,383.564,320.155,379.421,320.155z M371.921,372.577H290.64v-37.422h81.281   V372.577z M98.079,387.577h81.281V425H98.079V387.577z M275.64,335.155v37.422h-81.28v-37.422H275.64z M194.36,387.577h81.28V425   h-81.28V387.577z M179.36,335.155v37.422H98.079v-37.422H179.36z M290.64,425v-37.423h81.281V425H290.64z" fill="#3d2a20"/></g><g transform="matrix(0.08510638028383255 0 0 0.08510638028383255 67.5 67.5)" id="L1_2"><path d="M190.132,285.219l-13.312,33.405c-0.762,1.913-2.277,3.429-4.19,4.19l-37.036,14.76   c-0.91,0.363-1.851,0.535-2.774,0.535c-2.98,0-5.799-1.788-6.969-4.726c-1.534-3.848,0.343-8.21,4.19-9.743l34.039-13.565   l14.506-36.402l-28.066-28.066l-93.162,93.162l36.733,36.733l10.544-26.458c1.533-3.849,5.897-5.725,9.743-4.19   c3.848,1.533,5.725,5.896,4.19,9.743l-12.933,32.45l25.595,25.595l93.162-93.162L190.132,285.219z" fill="#e0dcd7"/><path d="M387.048,105.635l-44.615,17.779l-19.608,49.205c-0.762,1.913-2.277,3.429-4.19,4.19l-33.419,13.317   l34.267,34.267l93.162-93.162L387.048,105.635z" fill="#e0dcd7"/><path d="M120.624,423.25l-29.032-29.032c-0.016-0.016-0.032-0.032-0.048-0.048L46.75,349.376L18.107,378.02   l73.874,73.874L120.624,423.25z" fill="#e0dcd7"/><path d="M349.377,46.75l44.778,44.778c0.026,0.026,0.052,0.051,0.077,0.077l29.019,29.019l28.643-28.643   L378.02,18.106L349.377,46.75z" fill="#e0dcd7"/><path d="M273.668,178.58l36.416-14.511l19.608-49.205c0.762-1.913,2.277-3.429,4.19-4.19l41.619-16.584   l-36.733-36.733l-93.162,93.162L273.668,178.58z" fill="#e0dcd7"/><path d="M378.02,451.894l73.874-73.874L91.981,18.106L18.107,91.98L378.02,451.894z M372.682,349.92   c4.411,0,8,3.589,8,8s-3.589,8-8,8s-8-3.589-8-8S368.271,349.92,372.682,349.92z M364,383.721c4.411,0,8,3.589,8,8s-3.589,8-8,8   s-8-3.589-8-8S359.589,383.721,364,383.721z M102.682,85.92c-4.411,0-8-3.589-8-8s3.589-8,8-8s8,3.589,8,8   S107.093,85.92,102.682,85.92z" fill="#a3e175"/><path d="M330.088,235L467.804,97.284c2.929-2.93,2.929-7.678,0-10.607l-84.48-84.48   c-2.93-2.928-7.678-2.928-10.607,0L235,139.912L97.284,2.196c-2.93-2.928-7.678-2.928-10.607,0l-84.48,84.48   c-2.929,2.93-2.929,7.678,0,10.607L139.912,235L2.197,372.716c-2.929,2.93-2.929,7.678,0,10.607l84.48,84.48   c1.465,1.464,3.385,2.196,5.304,2.196s3.839-0.732,5.304-2.196L235,330.088l137.716,137.716c1.465,1.464,3.385,2.196,5.304,2.196   s3.839-0.732,5.304-2.196l84.48-84.48c2.929-2.93,2.929-7.678,0-10.607L330.088,235z M46.75,349.376l44.794,44.794   c0.016,0.016,0.032,0.032,0.048,0.048l29.032,29.032l-28.643,28.643L18.107,378.02L46.75,349.376z M105.636,387.048l12.933-32.45   c1.534-3.848-0.343-8.21-4.19-9.743c-3.846-1.534-8.21,0.342-9.743,4.19l-10.544,26.458l-36.733-36.733l93.162-93.162   l28.066,28.066l-14.506,36.402l-34.039,13.565c-3.848,1.533-5.725,5.896-4.19,9.743c1.17,2.938,3.988,4.726,6.969,4.726   c0.924,0,1.864-0.172,2.774-0.535l37.036-14.76c1.913-0.762,3.429-2.277,4.19-4.19l13.312-33.405l34.262,34.262l-93.162,93.162   L105.636,387.048z M18.107,91.98l73.874-73.874L451.894,378.02l-73.874,73.874L18.107,91.98z M285.215,190.126l33.419-13.317   c1.913-0.762,3.429-2.277,4.19-4.19l19.608-49.205l44.615-17.779l25.596,25.596l-93.162,93.162L285.215,190.126z M423.251,120.624   l-29.019-29.019c-0.026-0.026-0.052-0.052-0.077-0.077L349.377,46.75l28.643-28.643l73.874,73.874L423.251,120.624z M375.502,94.09   l-41.619,16.584c-1.913,0.762-3.429,2.277-4.19,4.19l-19.608,49.205l-36.416,14.511l-28.061-28.061l93.162-93.162L375.502,94.09z" fill="#3d2a20"/><path d="M372.682,365.92c4.411,0,8-3.589,8-8s-3.589-8-8-8s-8,3.589-8,8S368.271,365.92,372.682,365.92z" fill="#3d2a20"/><path d="M364,399.721c4.411,0,8-3.589,8-8s-3.589-8-8-8s-8,3.589-8,8S359.589,399.721,364,399.721z" fill="#3d2a20"/><path d="M102.682,69.92c-4.411,0-8,3.589-8,8s3.589,8,8,8s8-3.589,8-8S107.093,69.92,102.682,69.92z" fill="#3d2a20"/></g><g transform="matrix(0.08510656654834747 0 0 0.08510656654834747 242.5 67.5)" id="L1_3"><rect x="203px" y="135px" width="251px" height="18px" fill="#6b4833"/><path d="M203.901,311.816v22.5h34.539c-0.13-0.957-0.219-1.92-0.219-2.896c0-15.082,15.374-26.896,35-26.896   s35,11.814,35,26.896c0,0.975-0.089,1.939-0.219,2.896h146.997V168.908H203.901v112.907c0,4.142-3.357,7.498-7.497,7.5v15   C200.544,304.317,203.901,307.674,203.901,311.816z M409.221,184.408c19.626,0,35,11.813,35,26.896s-15.374,26.896-35,26.896   s-35-11.813-35-26.896S389.595,184.408,409.221,184.408z M342.221,224.408c19.626,0,35,11.813,35,26.896   c0,15.082-15.374,26.896-35,26.896s-35-11.813-35-26.896C307.221,236.222,322.595,224.408,342.221,224.408z" fill="#855538"/><path d="M273.221,319.524c-11.786,0-20,6.27-20,11.896c0,0.976,0.23,1.943,0.673,2.896h38.653   c0.443-0.952,0.673-1.919,0.673-2.896C293.221,325.793,285.007,319.524,273.221,319.524z" fill="#ffd77d"/><path d="M462.499,120.684H7.501c-4.142,0-7.5,3.357-7.5,7.5v96.74c0,0.072-0.002,0.144,0,0.217v32.358   c-0.001,0.036,0,0.071,0,0.107v84.21c0,4.143,3.358,7.5,7.5,7.5h454.999c4.143,0,7.5-3.357,7.5-7.5V128.184   C469.999,124.041,466.642,120.684,462.499,120.684z M15.001,230.263c2.292-0.559,4.727-0.855,7.22-0.855   c11.786,0,20,6.27,20,11.896s-8.214,11.896-20,11.896c-2.494,0-4.929-0.295-7.22-0.855V230.263z M454.999,153.908H203.901v-18.225   h251.099V153.908z M188.901,153.908h-173.9v-18.225h173.9V153.908z M15.001,267.629c2.361,0.374,4.78,0.571,7.22,0.571   c19.626,0,35-11.813,35-26.896c0-15.082-15.374-26.896-35-26.896c-2.44,0-4.858,0.197-7.22,0.571v-46.071h173.9v112.907   c0,4.143,3.358,7.5,7.5,7.5c0.001,0,0.002,0,0.003,0c4.141-0.001,7.497-3.358,7.497-7.5V168.908h251.099v165.407H308.002   c0.13-0.957,0.219-1.92,0.219-2.896c0-15.082-15.374-26.896-35-26.896s-35,11.814-35,26.896c0,0.975,0.089,1.939,0.219,2.896   h-34.539v-22.5c0-4.142-3.357-7.498-7.497-7.5c-0.001,0-0.002,0-0.003,0c-4.142,0-7.5,3.357-7.5,7.5v22.5h-173.9V267.629z    M253.894,334.316c-0.443-0.952-0.673-1.92-0.673-2.896c0-5.627,8.214-11.896,20-11.896s20,6.27,20,11.896   c0,0.976-0.23,1.944-0.673,2.896H253.894z" fill="#3d2a20"/><rect x="15px" y="135px" width="173px" height="18px" fill="#855538"/><path d="M188.901,311.816c0-4.143,3.358-7.5,7.5-7.5c0.001,0,0.002,0,0.003,0v-15c-0.001,0-0.002,0-0.003,0   c-4.142,0-7.5-3.357-7.5-7.5V168.908h-173.9v46.071c2.361-0.375,4.78-0.571,7.22-0.571c19.626,0,35,11.813,35,26.896   c0,15.082-15.374,26.896-35,26.896c-2.44,0-4.859-0.197-7.22-0.571v66.687h173.9V311.816z" fill="#a67b60"/><path d="M42.221,241.304c0-5.626-8.214-11.896-20-11.896c-2.493,0-4.928,0.295-7.22,0.855v22.082   c2.291,0.559,4.726,0.855,7.22,0.855C34.007,253.199,42.221,246.93,42.221,241.304z" fill="#ffd77d"/><path d="M342.221,263.199c11.786,0,20-6.27,20-11.896c0-5.626-8.214-11.896-20-11.896s-20,6.27-20,11.896   C322.221,256.93,330.435,263.199,342.221,263.199z" fill="#ffd77d"/><path d="M342.221,278.199c19.626,0,35-11.813,35-26.896c0-15.082-15.374-26.896-35-26.896   s-35,11.813-35,26.896C307.221,266.386,322.595,278.199,342.221,278.199z M342.221,239.408c11.786,0,20,6.27,20,11.896   c0,5.626-8.214,11.896-20,11.896s-20-6.27-20-11.896C322.221,245.678,330.435,239.408,342.221,239.408z" fill="#3d2a20"/><path d="M409.221,223.199c11.786,0,20-6.27,20-11.896s-8.214-11.896-20-11.896s-20,6.27-20,11.896   S397.435,223.199,409.221,223.199z" fill="#ffd77d"/><path d="M409.221,238.199c19.626,0,35-11.813,35-26.896s-15.374-26.896-35-26.896s-35,11.813-35,26.896   S389.595,238.199,409.221,238.199z M409.221,199.408c11.786,0,20,6.27,20,11.896s-8.214,11.896-20,11.896s-20-6.27-20-11.896   S397.435,199.408,409.221,199.408z" fill="#3d2a20"/></g><g transform="matrix(0.08511978387832642 0 0 0.08511978387832642 155 330)" id="L1_4"><path d="M419.13,114.83c-16.255,32.119-39.754,60.279-68.577,81.979   c-27.189,20.47-58.58,34.731-91.848,41.862c62.542,27.979,135.53,25.304,196.166-8.024   C454.045,187.985,441.014,148.264,419.13,114.83z" fill="#ffffff"/><path d="M319.343,322.694c-12.67-6.569-24.674-14.278-35.878-22.998   c32.451,36.051,76.463,61.069,125.435,69.75c5.044-6.509,9.74-13.301,14.042-20.36   C386.941,348.319,351.381,339.306,319.343,322.694z" fill="#ffffff"/><path d="M273.116,350.553c-20.477-27.197-34.739-58.598-41.868-91.877   c-14.027,31.207-20.593,65.196-19.079,99.5c0.181,4.093-2.956,7.559-7.027,7.812c0.387,5.006,0.94,9.993,1.655,14.953   c4.022-0.635,7.843,2.057,8.56,6.09c4.242,23.888,12.286,46.688,23.92,67.842c42.663-0.825,82.384-13.857,115.819-35.741   C322.977,402.874,294.816,379.375,273.116,350.553z" fill="#ffffff"/><path d="M170.23,283.465c-36.051,32.451-61.069,76.463-69.75,125.435   c6.505,5.041,13.292,9.734,20.346,14.033c0.768-35.997,9.797-71.555,26.406-103.59C153.801,306.673,161.509,294.669,170.23,283.465   z" fill="#ffffff"/><path d="M150.583,147.231c12.67,6.569,24.674,14.278,35.878,22.998   c-32.451-36.051-76.463-61.069-125.435-69.75c-5.042,6.506-9.735,13.294-14.035,20.349C83,121.602,118.547,130.621,150.583,147.231   z" fill="#ffffff"/><path d="M119.373,273.116c27.189-20.47,58.58-34.731,91.848-41.862   c-62.542-27.979-135.53-25.304-196.166,8.024c0.826,42.663,13.857,82.383,35.741,115.817   C67.051,322.977,90.55,294.816,119.373,273.116z" fill="#ffffff"/><path d="M196.81,119.372c20.471,27.189,34.731,58.58,41.862,91.849   c27.98-62.542,25.305-135.531-8.024-196.167c-42.662,0.826-82.383,13.857-115.817,35.741   C146.949,67.051,175.109,90.549,196.81,119.372z" fill="#ffffff"/><path d="M360.225,96.027c4.026-11.399,7.117-23.153,9.22-35.002c-6.504-5.041-13.291-9.733-20.344-14.032   c-0.768,35.997-9.797,71.555-26.406,103.59c-6.658,12.84-14.486,24.996-23.351,36.329c20.147-17.996,36.967-39.698,49.446-64.219   c1.86-3.654,6.303-5.126,9.972-3.334c2.125-4.537,4.099-9.143,5.921-13.81C360.855,104.125,358.86,99.894,360.225,96.027z" fill="#ffffff"/><path d="M205.007,365.999c-0.113,0.005-0.226,0.007-0.337,0.007c-3.99,0-7.31-3.144-7.487-7.169   c-1.516-34.359,4.555-68.419,17.662-100.008c-50.52,42.247-80.059,105.742-79.05,172.437c26.222,13.301,55.45,21.495,86.37,23.278   c-10.297-20.435-17.549-42.203-21.578-64.892c-0.724-4.079,1.995-7.972,6.073-8.696c0.042-0.008,0.084-0.009,0.127-0.016   c-0.714-4.96-1.266-9.947-1.652-14.953C205.092,365.99,205.05,365.997,205.007,365.999z" fill="#e7453f"/><path d="M87.355,397.905c7.565-35.181,23.149-68.371,45.504-96.672   c13.477-17.061,29.26-32.102,46.817-44.747c-51.957,20.636-95.05,60.688-118.975,112.537   C68.72,379.422,77.639,389.094,87.355,397.905z" fill="#e7453f"/><path d="M119.323,196.96c31.53-0.281,62.74,5.851,91.777,17.889   c-42.247-50.522-105.744-80.063-172.441-79.054c-13.301,26.222-21.494,55.448-23.278,86.368   C47.559,205.969,83.222,197.286,119.323,196.96z" fill="#e7453f"/><path d="M168.693,132.859c17.061,13.477,32.102,29.26,44.747,46.817   c-20.636-51.957-60.689-95.05-112.537-118.975c-10.4,8.02-20.073,16.938-28.883,26.655   C107.202,94.92,140.392,110.504,168.693,132.859z" fill="#e7453f"/><path d="M272.966,119.323c0.284,31.499-5.851,62.73-17.892,91.78   c50.525-42.247,80.067-105.746,79.058-172.444c-26.222-13.301-55.448-21.494-86.368-23.278   C263.957,47.559,272.64,83.222,272.966,119.323z" fill="#e7453f"/><path d="M382.562,72.013c-2.112,9.813-4.844,19.529-8.192,29.01c-1.088,3.079-3.982,5.004-7.072,5.004   c-0.829,0-1.672-0.139-2.498-0.43c-0.04-0.014-0.077-0.033-0.117-0.048c-1.822,4.667-3.797,9.273-5.921,13.81   c0.038,0.018,0.077,0.032,0.114,0.051c3.691,1.879,5.161,6.395,3.283,10.086c-17.103,33.608-41.83,62.264-71.919,83.949   c51.962-20.635,95.059-60.689,118.986-112.541C401.203,90.5,392.282,80.825,382.562,72.013z" fill="#e7453f"/><path d="M350.603,272.966c-0.698,0.006-1.399,0.009-2.097,0.009c-30.785,0-61.274-6.122-89.678-17.895   c42.248,50.522,105.749,80.069,172.438,79.052c13.301-26.222,21.495-55.448,23.278-86.369   C422.367,263.957,386.703,272.64,350.603,272.966z" fill="#e7453f"/><path d="M301.232,337.066c-17.061-13.477-32.102-29.26-44.747-46.816   c20.636,51.956,60.689,95.049,112.536,118.975c10.4-8.02,20.073-16.938,28.883-26.655   C362.724,375.006,329.534,359.421,301.232,337.066z" fill="#e7453f"/><path d="M401.106,68.819C356.728,24.44,297.724,0,234.963,0S113.198,24.44,68.819,68.819   S0,172.202,0,234.963s24.44,121.765,68.819,166.144s103.383,68.819,166.144,68.819s121.765-24.44,166.144-68.819   s68.819-103.383,68.819-166.144S445.485,113.198,401.106,68.819z M408.9,369.446c-48.972-8.681-92.984-33.698-125.435-69.75   c11.204,8.72,23.208,16.429,35.878,22.998c32.038,16.611,67.599,25.625,103.599,26.392   C418.641,356.145,413.944,362.937,408.9,369.446z M239.277,454.871c-11.635-21.154-19.678-43.954-23.92-67.842   c-0.717-4.033-4.537-6.725-8.56-6.09c-0.052,0.008-0.094,0.01-0.137,0.017c-4.078,0.725-6.797,4.617-6.073,8.696   c4.029,22.689,11.281,44.456,21.578,64.892c-30.921-1.783-60.148-9.977-86.37-23.278c-1.009-66.695,28.53-130.19,79.05-172.437   c-13.107,31.589-19.177,65.648-17.662,100.008c0.178,4.025,3.497,7.169,7.487,7.169c0.111,0,0.224-0.002,0.337-0.007   c0.043-0.002,0.085-0.01,0.128-0.012c4.079-0.253,7.215-3.719,7.034-7.812c-1.514-34.303,5.052-68.293,19.079-99.5   c7.129,33.279,21.392,64.68,41.868,91.877c21.7,28.823,49.861,52.322,81.98,68.577C321.661,441.014,281.94,454.046,239.277,454.871   z M100.48,408.9c8.681-48.972,33.698-92.984,69.75-125.435c-8.72,11.204-16.429,23.208-22.998,35.878   c-16.609,32.035-25.638,67.594-26.406,103.59C113.772,418.634,106.985,413.941,100.48,408.9z M61.026,100.48   c48.972,8.681,92.984,33.698,125.435,69.75c-11.204-8.72-23.208-16.429-35.878-22.998c-32.036-16.61-67.583-25.63-103.592-26.403   C51.291,113.774,55.984,106.986,61.026,100.48z M230.647,15.055c33.329,60.636,36.004,133.625,8.024,196.167   c-7.131-33.269-21.392-64.66-41.862-91.849c-21.7-28.823-49.861-52.321-81.979-68.576   C148.264,28.912,187.985,15.881,230.647,15.055z M258.705,238.672c33.268-7.131,64.659-21.392,91.848-41.862   c28.823-21.7,52.322-49.861,68.577-81.979c21.884,33.434,34.915,73.155,35.741,115.817   C394.234,263.976,321.246,266.651,258.705,238.672z M334.131,38.66c1.009,66.698-28.533,130.197-79.058,172.444   c12.041-29.051,18.177-60.282,17.892-91.78c-0.326-36.101-9.009-71.765-25.203-103.941C278.683,17.165,307.91,25.359,334.131,38.66   z M38.66,135.794c66.697-1.008,130.194,28.532,172.441,79.054c-29.037-12.038-60.247-18.17-91.777-17.889   c-36.101,0.326-71.765,9.009-103.941,25.203C17.165,191.243,25.359,162.016,38.66,135.794z M211.221,231.254   c-33.268,7.131-64.659,21.392-91.848,41.862c-28.823,21.7-52.322,49.861-68.577,81.979   c-21.884-33.434-34.915-73.155-35.741-115.817C75.691,205.949,148.679,203.275,211.221,231.254z M431.266,334.132   c-66.689,1.017-130.189-28.53-172.438-79.052c28.404,11.772,58.893,17.895,89.678,17.895c0.697,0,1.398-0.003,2.097-0.009   c36.101-0.326,71.765-9.009,103.941-25.203C452.76,278.683,444.567,307.91,431.266,334.132z M290.24,213.445   c30.089-21.684,54.815-50.341,71.919-83.949c1.878-3.691,0.408-8.207-3.283-10.086c-0.038-0.019-0.076-0.033-0.114-0.051   c-3.668-1.792-8.112-0.32-9.972,3.334c-12.479,24.521-29.299,46.223-49.446,64.219c8.865-11.333,16.694-23.489,23.351-36.329   c16.609-32.035,25.638-67.594,26.406-103.59c7.053,4.299,13.84,8.992,20.344,14.032c-2.103,11.85-5.194,23.603-9.22,35.002   c-1.365,3.866,0.63,8.098,4.457,9.522c0.04,0.015,0.077,0.034,0.117,0.048c0.826,0.291,1.669,0.43,2.498,0.43   c3.09,0,5.984-1.925,7.072-5.004c3.349-9.482,6.08-19.197,8.192-29.01c9.72,8.813,18.642,18.488,26.664,28.891   C385.298,152.755,342.201,192.81,290.24,213.445z M100.904,60.701c51.848,23.925,91.901,67.018,112.537,118.975   c-12.645-17.556-27.686-33.34-44.747-46.817c-28.302-22.355-61.491-37.939-96.672-45.504   C80.831,77.639,90.504,68.72,100.904,60.701z M179.676,256.485c-17.556,12.645-33.34,27.686-46.817,44.747   c-22.355,28.302-37.94,61.491-45.504,96.672c-9.717-8.81-18.635-18.483-26.655-28.883   C84.626,317.174,127.719,277.121,179.676,256.485z M369.022,409.225c-51.847-23.926-91.9-67.019-112.536-118.975   c12.645,17.556,27.686,33.339,44.747,46.816c28.302,22.355,61.491,37.939,96.672,45.504   C389.094,392.287,379.422,401.206,369.022,409.225z" fill="#3d2a20"/></g><g transform="matrix(0.19148936867713928 0 0 0.19148936867713928 217.5 217.5)" id="L1_5"><path d="M426.096,344.039c18.745-32.786,18.665-73.673-0.205-104.165c-0.508-0.823-1.027-1.632-1.561-2.432   c-1.658-2.487-1.681-5.722-0.058-8.232c0.523-0.81,1.031-1.628,1.528-2.449c18.295-30.234,17.968-70.565-0.833-102.749   c-12.623-21.601-33.023-38.434-55.972-46.184c-10.113-3.449-20.452-5.195-30.752-5.195c-0.872,0-1.741,0.014-2.607,0.039   c-0.962,0.026-1.915,0.072-2.869,0.131c-2.985,0.182-5.817-1.433-7.166-4.117c-0.381-0.757-0.778-1.505-1.175-2.252l-0.19-0.357   C307.789,35.048,272.761,15,234.999,15c-38.073,0-73.488,20.269-90.224,51.638l-0.323,0.605c-0.365,0.683-0.731,1.365-1.082,2.056   c-1.338,2.635-4.097,4.238-7.05,4.096c-0.966-0.047-1.933-0.079-2.896-0.094c-0.591-0.011-1.151-0.017-1.715-0.017   c-10.673,0-21.378,1.865-31.818,5.544c-23.064,8.043-43.463,25.22-55.989,47.134c-18.744,32.785-18.663,73.672,0.206,104.163   c0.511,0.828,1.031,1.637,1.564,2.438c1.654,2.487,1.676,5.719,0.054,8.228c-0.523,0.811-1.031,1.63-1.529,2.452   c-18.293,30.231-17.965,70.563,0.835,102.746c12.622,21.601,33.022,38.434,55.971,46.184c10.971,3.74,22.265,5.477,33.359,5.156   c0.958-0.026,1.909-0.071,2.861-0.132c0.158-0.01,0.316-0.015,0.474-0.015c2.822,0,5.425,1.591,6.702,4.138   c0.359,0.716,0.734,1.422,1.108,2.127l0.257,0.483C162.21,434.952,197.239,455,234.999,455c38.072,0,73.487-20.269,90.223-51.637   l0.32-0.599c0.365-0.684,0.732-1.368,1.084-2.061c1.338-2.638,4.09-4.254,7.051-4.099c0.967,0.047,1.933,0.079,2.897,0.094   c0.591,0.011,1.151,0.017,1.714,0.017c10.674-0.001,21.379-1.866,31.819-5.544C393.172,383.129,413.571,365.953,426.096,344.039z    M327.608,109.696c9.455-5.459,20.193-8.344,31.056-8.344c22.183,0,42.847,11.922,53.928,31.114   c17.151,29.708,6.937,67.831-22.771,84.983c-14.579,8.417-34.373,13.441-52.95,13.441c-24.759,0-43.398-8.667-52.484-24.405   c-8.701-15.07-7.367-34.688,3.756-55.241C297.252,134.412,312.375,118.491,327.608,109.696z M284.282,235   c0,27.175-22.107,49.282-49.282,49.282S185.717,262.175,185.717,235s22.107-49.282,49.282-49.282S284.282,207.825,284.282,235z    M234.999,29.935c27.658,0,52.26,18.57,59.827,45.159c1.134,3.983-1.177,8.133-5.161,9.267c-0.167,0.047-0.333,0.08-0.5,0.116   c0.352,2.508,0.546,5.066,0.546,7.67c0,2.447-0.133,4.985-0.393,7.584c0.097,0.014,0.194,0.02,0.292,0.038   c4.075,0.746,6.773,4.653,6.028,8.728c-3.055,16.694-10.223,33.432-19.665,45.921c-11.651,15.411-25.82,23.557-40.975,23.557   c-37.977,0-62.212-50.833-62.212-85.827C172.788,57.843,200.696,29.935,234.999,29.935z M57.408,132.467   c11.081-19.192,31.745-31.114,53.928-31.114c10.861,0,21.6,2.885,31.055,8.344c15.233,8.795,30.355,24.715,39.467,41.549   c11.123,20.553,12.457,40.171,3.756,55.241c-9.086,15.738-27.726,24.405-52.484,24.405c-18.577,0-38.371-5.024-52.95-13.441   C50.471,200.298,40.256,162.175,57.408,132.467z M142.39,360.304c-9.771,5.642-20.455,8.322-31.001,8.323   c-21.519,0-42.471-11.157-53.981-31.094c-13.834-23.96-10.047-54.557,9.209-74.405c2.883-2.972,7.631-3.046,10.605-0.16   c0.124,0.12,0.236,0.249,0.35,0.375c1.992-1.555,4.106-2.999,6.356-4.298c2.121-1.224,4.4-2.369,6.782-3.444   c-0.038-0.094-0.082-0.184-0.116-0.28c-1.391-3.901,0.644-8.191,4.546-9.583c15.985-5.7,34.062-7.858,49.593-5.929   c19.168,2.385,33.304,10.582,40.88,23.705c8.701,15.07,7.367,34.688-3.756,55.241C172.746,335.589,157.623,351.509,142.39,360.304z    M234.999,440.065c-34.304,0-62.212-27.908-62.212-62.212c0-34.994,24.235-85.827,62.212-85.827s62.212,50.833,62.212,85.827   C297.211,412.157,269.303,440.065,234.999,440.065z M358.664,368.647c-10.862,0-21.601-2.885-31.056-8.344   c-15.232-8.795-30.355-24.716-39.466-41.549c-11.123-20.553-12.457-40.171-3.756-55.241c9.086-15.738,27.726-24.405,52.484-24.405   c18.577,0,38.371,5.024,52.95,13.441c29.707,17.152,39.922,55.275,22.771,84.983C401.51,356.726,380.846,368.647,358.664,368.647z" fill="#e7453f"/><path d="M439.407,233.229c20.318-34.715,19.781-80.375-1.487-116.784   c-14.423-24.682-37.795-43.937-64.103-52.82c-12.146-4.144-24.68-6.188-37.087-5.979C317.417,22.575,277.676,0,234.999,0   c-43.02,0-83.178,22.829-102.757,58.286c-12.511-0.08-25.118,2.09-37.313,6.387c-26.408,9.209-49.754,28.835-64.05,53.845   C9.696,155.57,9.63,201.82,30.593,236.771c-20.317,34.715-19.781,80.376,1.486,116.784c14.423,24.682,37.795,43.937,64.103,52.82   c11.656,3.976,23.624,5.991,35.573,5.99c0.505,0,1.01-0.003,1.513-0.011C152.581,447.425,192.323,470,234.999,470   c43.019,0,83.177-22.83,102.757-58.286c0.177,0.001,0.354,0.002,0.532,0.002c12.376-0.001,24.759-2.152,36.781-6.389   c26.409-9.209,49.754-28.834,64.049-53.844C460.303,314.431,460.372,268.185,439.407,233.229z M338.289,396.716   c-0.563,0-1.123-0.006-1.714-0.017c-0.965-0.015-1.931-0.047-2.897-0.094c-2.961-0.155-5.713,1.461-7.051,4.099   c-0.352,0.692-0.719,1.377-1.084,2.061l-0.32,0.599C308.487,434.731,273.072,455,234.999,455c-37.761,0-72.789-20.048-89.235-51.07   l-0.257-0.483c-0.374-0.705-0.749-1.411-1.108-2.127c-1.277-2.547-3.88-4.138-6.702-4.138c-0.157,0-0.315,0.005-0.474,0.015   c-0.952,0.061-1.903,0.105-2.861,0.132c-11.095,0.32-22.389-1.416-33.359-5.156c-22.948-7.75-43.349-24.583-55.971-46.184   c-18.8-32.184-19.128-72.515-0.835-102.746c0.498-0.822,1.006-1.642,1.529-2.452c1.622-2.509,1.601-5.74-0.054-8.228   c-0.533-0.801-1.054-1.609-1.564-2.438c-18.869-30.491-18.95-71.378-0.206-104.163c12.526-21.914,32.925-39.091,55.989-47.134   c10.44-3.679,21.146-5.544,31.818-5.544c0.563,0,1.124,0.006,1.715,0.017c0.964,0.015,1.931,0.047,2.896,0.094   c2.953,0.143,5.712-1.461,7.05-4.096c0.351-0.69,0.717-1.373,1.082-2.056l0.323-0.605C161.511,35.269,196.926,15,234.999,15   c37.762,0,72.789,20.048,89.237,51.076l0.19,0.357c0.396,0.747,0.794,1.495,1.175,2.252c1.349,2.685,4.181,4.299,7.166,4.117   c0.954-0.059,1.907-0.104,2.869-0.131c0.866-0.025,1.735-0.039,2.607-0.039c10.3,0,20.639,1.746,30.752,5.195   c22.948,7.75,43.349,24.583,55.972,46.184c18.801,32.184,19.128,72.515,0.833,102.749c-0.497,0.821-1.005,1.64-1.528,2.449   c-1.623,2.511-1.601,5.745,0.058,8.232c0.533,0.8,1.053,1.608,1.561,2.432c18.87,30.492,18.95,71.379,0.205,104.165   c-12.525,21.914-32.924,39.09-55.988,47.133C359.667,394.85,348.962,396.715,338.289,396.716z" fill="#3d2a20"/><path d="M234.999,200.718c-18.903,0-34.282,15.379-34.282,34.282s15.379,34.282,34.282,34.282   s34.282-15.379,34.282-34.282S253.903,200.718,234.999,200.718z" fill="#ec6a65"/><path d="M234.999,185.718c-27.175,0-49.282,22.107-49.282,49.282s22.107,49.282,49.282,49.282   s49.282-22.107,49.282-49.282S262.174,185.718,234.999,185.718z M234.999,269.282c-18.903,0-34.282-15.379-34.282-34.282   s15.379-34.282,34.282-34.282s34.282,15.379,34.282,34.282S253.903,269.282,234.999,269.282z" fill="#96362f"/><path d="M280.399,79.199c-5.741-20.175-24.41-34.265-45.399-34.265c-26.033,0-47.212,21.179-47.212,47.212   c0,28.521,19.824,70.827,47.212,70.827c22.173,0,40.741-29.071,45.884-57.177c0.727-3.977,4.474-6.629,8.436-6.066   c0.26-2.599,0.393-5.137,0.393-7.584c0-2.605-0.194-5.163-0.546-7.67C285.344,85.29,281.485,83.017,280.399,79.199z" fill="#ec6a65"/><path d="M87.678,204.46c12.214,7.052,29.629,11.432,45.45,11.432c11.104,0,31.002-2.196,39.494-16.905   c8.091-14.014,0.993-31.453-3.958-40.602c-7.865-14.533-20.807-28.212-33.774-35.698c-7.178-4.144-15.322-6.334-23.555-6.334   c-16.841,0-32.527,9.048-40.938,23.614C57.381,162.512,65.133,191.443,87.678,204.46z" fill="#ec6a65"/><path d="M80.178,217.45c14.579,8.417,34.373,13.441,52.95,13.441c24.759,0,43.398-8.667,52.484-24.405   c8.701-15.07,7.367-34.688-3.756-55.241c-9.111-16.834-24.233-32.754-39.467-41.549c-9.455-5.459-20.193-8.344-31.055-8.344   c-22.183,0-42.847,11.922-53.928,31.114C40.256,162.175,50.471,200.298,80.178,217.45z M70.398,139.967   c8.41-14.566,24.097-23.614,40.938-23.614c8.232,0,16.377,2.19,23.555,6.334c12.968,7.486,25.909,21.165,33.774,35.698   c4.951,9.148,12.049,26.588,3.958,40.602c-8.492,14.709-28.39,16.905-39.494,16.905c-15.821,0-33.236-4.38-45.45-11.432   C65.133,191.443,57.381,162.512,70.398,139.967z" fill="#96362f"/><path d="M234.999,307.026c-27.388,0-47.212,42.307-47.212,70.827c0,26.033,21.179,47.212,47.212,47.212   s47.212-21.179,47.212-47.212C282.211,349.333,262.387,307.026,234.999,307.026z M219.603,359.332c-4.411,0-8-3.589-8-8   s3.589-8,8-8s8,3.589,8,8S224.014,359.332,219.603,359.332z" fill="#ec6a65"/><path d="M234.999,292.026c-37.977,0-62.212,50.833-62.212,85.827c0,34.304,27.908,62.212,62.212,62.212   s62.212-27.908,62.212-62.212C297.211,342.859,272.976,292.026,234.999,292.026z M234.999,425.065   c-26.033,0-47.212-21.179-47.212-47.212c0-28.521,19.824-70.827,47.212-70.827s47.212,42.307,47.212,70.827   C282.211,403.887,261.033,425.065,234.999,425.065z" fill="#96362f"/><path d="M382.321,265.54c-12.214-7.052-29.63-11.432-45.45-11.432c-11.104,0-31.002,2.196-39.494,16.905   c-8.091,14.014-0.993,31.453,3.958,40.602c7.865,14.532,20.807,28.212,33.773,35.698c7.178,4.144,15.323,6.334,23.556,6.334   c16.841,0,32.527-9.048,40.938-23.614C412.618,307.488,404.866,278.557,382.321,265.54z" fill="#ec6a65"/><path d="M389.821,252.55c-14.579-8.417-34.373-13.441-52.95-13.441c-24.759,0-43.398,8.667-52.484,24.405   c-8.701,15.07-7.367,34.688,3.756,55.241c9.11,16.833,24.233,32.754,39.466,41.549c9.455,5.459,20.193,8.344,31.056,8.344   c22.183,0,42.847-11.922,53.928-31.114C429.743,307.825,419.528,269.702,389.821,252.55z M399.601,330.033   c-8.41,14.566-24.097,23.614-40.938,23.614c-8.232,0-16.378-2.19-23.556-6.334c-12.967-7.486-25.908-21.166-33.773-35.698   c-4.951-9.148-12.049-26.588-3.958-40.602c8.492-14.709,28.39-16.905,39.494-16.905c15.82,0,33.236,4.38,45.45,11.432   C404.866,278.557,412.618,307.488,399.601,330.033z" fill="#96362f"/><path d="M301.334,158.385c-4.951,9.148-12.049,26.588-3.958,40.602c8.492,14.709,28.39,16.905,39.494,16.905   c15.82,0,33.236-4.38,45.45-11.432c22.545-13.017,30.297-41.948,17.28-64.493c-8.41-14.566-24.097-23.614-40.938-23.614   c-8.232,0-16.378,2.19-23.556,6.334C322.141,130.173,309.2,143.853,301.334,158.385z M372.603,152.665c4.411,0,8,3.589,8,8   s-3.589,8-8,8s-8-3.589-8-8S368.192,152.665,372.603,152.665z M352.603,182.665c4.411,0,8,3.589,8,8s-3.589,8-8,8s-8-3.589-8-8   S348.192,182.665,352.603,182.665z" fill="#ec6a65"/><path d="M284.386,206.486c9.086,15.738,27.726,24.405,52.484,24.405c18.577,0,38.371-5.024,52.95-13.441   c29.707-17.152,39.922-55.275,22.771-84.983c-11.081-19.192-31.745-31.114-53.928-31.114c-10.862,0-21.601,2.885-31.056,8.344   c-15.232,8.795-30.355,24.716-39.466,41.549C277.019,171.798,275.685,191.416,284.386,206.486z M358.664,116.353   c16.841,0,32.527,9.048,40.938,23.614c13.017,22.545,5.265,51.477-17.28,64.493c-12.214,7.052-29.63,11.432-45.45,11.432   c-11.104,0-31.002-2.196-39.494-16.905c-8.091-14.014-0.993-31.453,3.958-40.602c7.865-14.532,20.807-28.212,33.773-35.698   C342.286,118.543,350.431,116.353,358.664,116.353z" fill="#96362f"/><path d="M234.999,177.974c15.154,0,29.323-8.146,40.975-23.557c9.442-12.489,16.61-29.227,19.665-45.921   c0.745-4.074-1.953-7.981-6.028-8.728c-0.098-0.018-0.195-0.024-0.292-0.038c-3.962-0.563-7.708,2.089-8.436,6.066   c-5.143,28.105-23.711,57.177-45.884,57.177c-27.388,0-47.212-42.307-47.212-70.827c0-26.033,21.179-47.212,47.212-47.212   c20.989,0,39.658,14.09,45.399,34.265c1.086,3.818,4.945,6.091,8.766,5.277c0.167-0.036,0.334-0.068,0.5-0.116   c3.984-1.134,6.295-5.283,5.161-9.267c-7.567-26.589-32.169-45.159-59.827-45.159c-34.304,0-62.212,27.908-62.212,62.212   C172.788,127.141,197.023,177.974,234.999,177.974z" fill="#96362f"/><path d="M77.382,273.573c-14.61,15.06-17.482,38.277-6.984,56.46c8.734,15.128,24.638,23.595,40.966,23.597   c8.005,0,16.109-2.034,23.526-6.316c12.968-7.486,25.909-21.165,33.774-35.698c4.951-9.148,12.049-26.588,3.958-40.602   c-11.083-19.194-45.535-20.742-72.445-11.147c-3.805,1.356-7.972-0.552-9.467-4.266c-2.382,1.075-4.661,2.22-6.782,3.444   c-2.251,1.299-4.365,2.744-6.356,4.298C80.188,266.25,80.146,270.724,77.382,273.573z" fill="#ec6a65"/><path d="M185.613,263.514c-7.576-13.123-21.712-21.32-40.88-23.705c-15.531-1.93-33.607,0.229-49.593,5.929   c-3.902,1.392-5.937,5.682-4.546,9.583c0.034,0.096,0.078,0.186,0.116,0.28c1.495,3.714,5.662,5.622,9.467,4.266   c26.91-9.595,61.362-8.047,72.445,11.147c8.091,14.014,0.993,31.453-3.958,40.602c-7.865,14.533-20.807,28.212-33.774,35.698   c-7.417,4.282-15.521,6.316-23.526,6.316c-16.328-0.002-32.231-8.469-40.966-23.597c-10.498-18.183-7.626-41.4,6.984-56.46   c2.764-2.849,2.806-7.323,0.19-10.23c-0.114-0.127-0.226-0.255-0.35-0.375c-2.975-2.886-7.723-2.812-10.605,0.16   c-19.256,19.849-23.043,50.445-9.209,74.405c11.511,19.937,32.463,31.094,53.981,31.094c10.546-0.001,21.229-2.682,31.001-8.323   c15.233-8.795,30.355-24.715,39.467-41.549C192.98,298.202,194.314,278.584,185.613,263.514z" fill="#96362f"/><path d="M372.603,168.665c4.411,0,8-3.589,8-8s-3.589-8-8-8s-8,3.589-8,8S368.192,168.665,372.603,168.665z" fill="#3d2a20"/><path d="M352.603,198.665c4.411,0,8-3.589,8-8s-3.589-8-8-8s-8,3.589-8,8S348.192,198.665,352.603,198.665z" fill="#3d2a20"/><path d="M219.603,343.332c-4.411,0-8,3.589-8,8s3.589,8,8,8s8-3.589,8-8S224.014,343.332,219.603,343.332z" fill="#3d2a20"/></g><g transform="matrix(0.18496491528728165 0.04956119967931814 -0.04956119967931814 0.18496491528728165 -31.844557580715573 294.88319674198397)" id="L1_6"><path d="M126.469,234.699l42.03-32.263c2.371-1.819,5.597-2.058,8.209-0.607   c2.613,1.452,4.115,4.316,3.822,7.291l-5.597,56.892l33.752-45.854c1.723-2.343,4.645-3.479,7.499-2.91   c2.853,0.565,5.121,2.729,5.821,5.552l12.994,52.41l12.993-52.41c0.7-2.822,2.968-4.986,5.821-5.552   c2.854-0.563,5.775,0.568,7.499,2.91l33.751,45.854l-5.597-56.891c-0.292-2.975,1.209-5.839,3.822-7.291   c2.612-1.451,5.838-1.212,8.209,0.607l42.033,32.264c-12.35-48.414-56.324-84.323-108.531-84.323   C182.794,150.379,138.82,186.286,126.469,234.699z" fill="#a3e175"/><path d="M216.507,136.663c-10.487-26.4-17.139-63.288-20.997-91.124c-0.568-4.103,2.297-7.89,6.4-8.458   c4.104-0.569,7.89,2.297,8.458,6.399c3.259,23.52,10.314,65.559,21.867,91.934c0.919-0.02,1.84-0.035,2.763-0.035   c0.924,0,1.845,0.015,2.765,0.035c3.667-8.379,7.164-18.979,10.418-31.613c1.033-4.012,5.125-6.427,9.134-5.393   c4.011,1.032,6.425,5.122,5.393,9.133c-2.871,11.15-5.96,20.896-9.222,29.125c44.84-30.489,68.455-87.331,76.187-109.16   c-8.687-1.282-14.323-4.123-19.45-6.707c-6.174-3.112-11.507-5.8-22.823-5.8c-11.317,0-16.65,2.688-22.825,5.8   c-6.887,3.471-14.692,7.404-29.576,7.404s-22.689-3.934-29.576-7.404c-6.175-3.112-11.508-5.8-22.825-5.8   c-11.316,0-16.649,2.688-22.823,5.8c-5.125,2.583-10.76,5.423-19.442,6.706C148.087,49.344,171.755,106.225,216.507,136.663z    M254.516,74.983c1.883-10.001,3.604-20.6,5.114-31.501c0.569-4.103,4.352-6.967,8.459-6.399c4.103,0.568,6.968,4.355,6.399,8.458   c-1.544,11.14-3.304,21.979-5.231,32.218c-0.678,3.602-3.826,6.113-7.362,6.113c-0.46,0-0.927-0.042-1.396-0.131   C256.429,82.976,253.75,79.055,254.516,74.983z" fill="#a3e175"/><path d="M346.993,434.997V262.372c0-2.094-0.063-4.173-0.177-6.239l-40.727-31.262l6.574,66.828   c0.331,3.36-1.625,6.527-4.778,7.737c-3.153,1.208-6.725,0.161-8.726-2.557l-40.453-54.959l-16.427,66.26   c-0.83,3.346-3.833,5.695-7.28,5.695c-3.447,0-6.45-2.35-7.28-5.695l-16.428-66.261l-40.455,54.959   c-2.001,2.72-5.574,3.766-8.726,2.557c-3.153-1.21-5.108-4.377-4.778-7.737l6.575-66.828l-40.725,31.261   c-0.114,2.067-0.177,4.146-0.177,6.241v172.625c14.16,5.185,59.253,20.002,111.993,20.002   C287.735,454.999,332.827,440.184,346.993,434.997z M288.212,323.587c0-4.143,3.358-7.5,7.5-7.5s7.5,3.357,7.5,7.5v13.323   c0,4.143-3.358,7.5-7.5,7.5s-7.5-3.357-7.5-7.5V323.587z M288.212,408.389c0-4.143,3.358-7.5,7.5-7.5s7.5,3.357,7.5,7.5v13.322   c0,4.143-3.358,7.5-7.5,7.5s-7.5-3.357-7.5-7.5V408.389z M183.719,421.711c0,4.143-3.358,7.5-7.5,7.5s-7.5-3.357-7.5-7.5v-13.322   c0-4.143,3.358-7.5,7.5-7.5s7.5,3.357,7.5,7.5V421.711z M183.719,336.91c0,4.143-3.358,7.5-7.5,7.5s-7.5-3.357-7.5-7.5v-13.323   c0-4.143,3.358-7.5,7.5-7.5s7.5,3.357,7.5,7.5V336.91z M228.465,379.311v-13.322c0-4.143,3.358-7.5,7.5-7.5s7.5,3.357,7.5,7.5   v13.322c0,4.143-3.358,7.5-7.5,7.5S228.465,383.453,228.465,379.311z" fill="#e7453f"/><path d="M272.663,141.08c52.525-42.818,73.422-115.044,74.352-118.338c0.638-2.262,0.181-4.69-1.237-6.564   c-1.417-1.873-3.631-2.974-5.98-2.974c-11.316,0-16.649-2.688-22.823-5.8C310.088,3.934,302.282,0,287.4,0   c-14.883,0-22.689,3.934-29.576,7.404c-6.175,3.112-11.508,5.8-22.825,5.8s-16.65-2.688-22.825-5.8   C205.288,3.934,197.482,0,182.599,0c-14.882,0-22.688,3.934-29.574,7.404c-6.174,3.112-11.507,5.8-22.823,5.8   c-2.349,0-4.563,1.101-5.98,2.974c-1.418,1.874-1.875,4.303-1.237,6.564c0.93,3.294,21.827,75.52,74.352,118.338   c-51.693,16.085-89.33,64.375-89.33,121.292v177.782c0,3.025,1.818,5.755,4.609,6.921c2.241,0.936,55.654,22.924,122.384,22.924   s120.143-21.988,122.384-22.924c2.792-1.166,4.609-3.896,4.609-6.921V262.372C361.993,205.456,324.356,157.166,272.663,141.08z    M159.776,20.8c6.174-3.112,11.507-5.8,22.823-5.8c11.317,0,16.65,2.688,22.825,5.8c6.887,3.471,14.692,7.404,29.576,7.404   s22.689-3.934,29.576-7.404c6.175-3.112,11.508-5.8,22.825-5.8c11.316,0,16.649,2.688,22.823,5.8   c5.127,2.584,10.763,5.425,19.45,6.707c-7.731,21.829-31.347,78.671-76.187,109.16c3.262-8.229,6.35-17.976,9.222-29.125   c1.033-4.011-1.381-8.101-5.393-9.133c-4.008-1.034-8.101,1.381-9.134,5.393c-3.254,12.635-6.75,23.234-10.418,31.613   c-0.92-0.02-1.841-0.035-2.765-0.035c-0.924,0-1.844,0.015-2.763,0.035C220.683,109.04,213.627,67,210.369,43.48   c-0.569-4.103-4.354-6.969-8.458-6.399c-4.103,0.568-6.968,4.355-6.4,8.458c3.857,27.836,10.509,64.724,20.997,91.124   c-44.752-30.438-68.42-87.319-76.173-109.157C149.016,26.223,154.65,23.383,159.776,20.8z M235,150.379   c52.207,0,96.181,35.908,108.531,84.323l-42.033-32.264c-2.371-1.819-5.597-2.059-8.209-0.607   c-2.613,1.452-4.114,4.316-3.822,7.291l5.597,56.891l-33.751-45.854c-1.724-2.342-4.646-3.474-7.499-2.91   c-2.853,0.565-5.121,2.729-5.821,5.552l-12.993,52.41l-12.994-52.41c-0.7-2.823-2.968-4.986-5.821-5.552   c-2.854-0.568-5.776,0.567-7.499,2.91l-33.752,45.854l5.597-56.892c0.293-2.975-1.209-5.839-3.822-7.291   c-2.612-1.45-5.838-1.212-8.209,0.607l-42.03,32.263C138.82,186.286,182.794,150.379,235,150.379z M123.006,262.372   c0-2.094,0.063-4.174,0.177-6.241l40.725-31.261l-6.575,66.828c-0.331,3.36,1.625,6.527,4.778,7.737   c3.152,1.209,6.725,0.163,8.726-2.557l40.455-54.959l16.428,66.261c0.83,3.346,3.833,5.695,7.28,5.695   c3.447,0,6.45-2.35,7.28-5.695l16.427-66.26l40.453,54.959c2.001,2.718,5.573,3.765,8.726,2.557   c3.153-1.21,5.108-4.377,4.778-7.737l-6.574-66.828l40.727,31.262c0.114,2.066,0.177,4.145,0.177,6.239v172.625   c-14.166,5.187-59.257,20.002-111.993,20.002c-52.74,0-97.833-14.817-111.993-20.002V262.372z" fill="#3d2a20"/><path d="M176.219,400.889c-4.142,0-7.5,3.357-7.5,7.5v13.322c0,4.143,3.358,7.5,7.5,7.5s7.5-3.357,7.5-7.5   v-13.322C183.719,404.246,180.361,400.889,176.219,400.889z" fill="#ffeabd"/><path d="M295.712,429.211c4.142,0,7.5-3.357,7.5-7.5v-13.322c0-4.143-3.358-7.5-7.5-7.5s-7.5,3.357-7.5,7.5   v13.322C288.212,425.854,291.57,429.211,295.712,429.211z" fill="#ffeabd"/><path d="M176.219,316.087c-4.142,0-7.5,3.357-7.5,7.5v13.323c0,4.143,3.358,7.5,7.5,7.5s7.5-3.357,7.5-7.5   v-13.323C183.719,319.444,180.361,316.087,176.219,316.087z" fill="#ffeabd"/><path d="M243.465,379.311v-13.322c0-4.143-3.358-7.5-7.5-7.5s-7.5,3.357-7.5,7.5v13.322   c0,4.143,3.358,7.5,7.5,7.5S243.465,383.453,243.465,379.311z" fill="#ffeabd"/><path d="M295.712,344.41c4.142,0,7.5-3.357,7.5-7.5v-13.323c0-4.143-3.358-7.5-7.5-7.5s-7.5,3.357-7.5,7.5   v13.323C288.212,341.053,291.57,344.41,295.712,344.41z" fill="#ffeabd"/><path d="M260.499,83.741c0.469,0.089,0.936,0.131,1.396,0.131c3.536,0,6.684-2.512,7.362-6.113   c1.927-10.238,3.688-21.078,5.231-32.218c0.568-4.103-2.297-7.89-6.399-8.458c-4.107-0.567-7.89,2.297-8.459,6.399   c-1.511,10.901-3.231,21.5-5.114,31.501C253.75,79.055,256.429,82.976,260.499,83.741z" fill="#3d2a20"/></g><g transform="matrix(0.04255228489637375 0 0 0.04255228489637375 252.5 340)" id="L1_7"><path d="M425.487,66.605c1.807-3.727,6.29-5.288,10.021-3.479c6.79,3.29,13.305,7.134,19.476,11.486   c0.006-0.356,0.026-0.71,0.026-1.067c0-32.279-26.261-58.54-58.54-58.54c-15.634,0-30.334,6.088-41.391,17.142   c-1.256,1.236-5.908,5.895-23.899,23.89c23.583-7.726,49.186-9.092,74.396-3.386c4.039,0.915,6.573,4.931,5.658,8.971   c-0.016,0.069-0.039,0.135-0.057,0.203c4.813,1.381,9.563,3.042,14.225,4.98C425.432,66.739,425.455,66.671,425.487,66.605z" fill="#a3e175"/><path d="M428.967,76.625c-3.662-1.774-5.221-6.133-3.564-9.82c-4.662-1.938-9.412-3.599-14.225-4.98   c-1.002,3.919-4.942,6.351-8.914,5.456c-41.982-9.504-85.186,2.939-115.607,33.284c-10.389,10.389-22.347,22.348-36.114,36.114   c9.962-3.281,20.314-5.454,30.867-6.415c4.108-0.375,7.772,2.664,8.148,6.79c0.007,0.074,0.004,0.146,0.009,0.22   c4.954-0.17,9.914-0.066,14.858,0.318c0.008-0.073,0.009-0.145,0.018-0.218c0.553-4.105,4.328-6.983,8.435-6.431   c28.012,3.775,53.609,15.664,74.501,34.478l50.479-50.478c6.728-6.726,11.604-14.804,14.401-23.617   C445.056,85.574,437.242,80.634,428.967,76.625z" fill="#03e6ff"/><path d="M289.567,137.274c0.25,4.033-2.747,7.56-6.798,7.929c-28.834,2.625-56.01,15.339-76.555,35.804   c-13.041,13.041-27.216,27.215-42.637,42.636c46.191-15.111,98.759-5.542,136.866,28.712l76.311-76.309   c-18.535-16.481-41.154-26.905-65.88-30.237c-4.031-0.543-6.874-4.197-6.449-8.217   C299.481,137.208,294.521,137.103,289.567,137.274z" fill="#e7453f"/><path d="M142.66,305.389c4.089,0.662,6.867,4.514,6.205,8.603c-0.011,0.07-0.031,0.135-0.044,0.204   c4.894,1.079,9.738,2.443,14.508,4.085c0.026-0.068,0.044-0.137,0.072-0.205c1.57-3.833,5.951-5.669,9.782-4.1   c14.852,6.079,28.38,14.585,40.313,25.324l76.319-76.317c-48.839-43.336-123.837-41.654-170.637,5.058   c-13.429,13.429-27.618,27.618-42.619,42.617C97.59,303.73,120.259,301.762,142.66,305.389z" fill="#ec6a65"/><path d="M140.264,320.196c-18.744-3.034-37.697-1.681-55.459,3.592   c35.222,5.437,62.276,35.956,62.276,72.677c0,3.372-0.249,6.686-0.69,9.94l56.48-56.479c-10.504-9.333-22.368-16.746-35.368-22.068   c-3.766-1.541-5.595-5.794-4.173-9.577c-4.77-1.641-9.613-3.005-14.508-4.085C148.065,318.17,144.276,320.843,140.264,320.196z" fill="#ffcb59"/><path d="M132.08,396.465c0-32.279-26.261-58.54-58.54-58.54S15,364.186,15,396.465s26.261,58.54,58.54,58.54   S132.08,428.744,132.08,396.465z" fill="#ffffff"/><path d="M396.47,0.005c-19.64,0-38.105,7.647-51.996,21.534C344.228,21.785,22.202,343.88,20.96,345.122    C8.005,358.386,0,376.504,0,396.465c0,40.55,32.99,73.54,73.54,73.54c19.956,0,38.071-8.002,51.334-20.951L448.465,125.55    c9.832-9.83,16.52-21.958,19.6-35.169c0.021-0.087,0.041-0.174,0.059-0.261c1.233-5.376,1.886-10.924,1.886-16.575    C470.01,32.995,437.02,0.005,396.47,0.005z M73.54,455.005c-32.279,0-58.54-26.261-58.54-58.54s26.261-58.54,58.54-58.54    s58.54,26.261,58.54,58.54S105.819,455.005,73.54,455.005z M213.496,339.3c-11.933-10.739-25.461-19.245-40.313-25.324    c-3.831-1.569-8.212,0.267-9.782,4.1c-0.028,0.068-0.046,0.137-0.072,0.205c-1.423,3.784,0.406,8.036,4.173,9.577    c13,5.322,24.864,12.734,35.368,22.068l-56.48,56.479c0.442-3.253,0.69-6.567,0.69-9.94c0-36.721-27.054-67.24-62.276-72.677    c17.762-5.272,36.716-6.626,55.459-3.592c4.013,0.647,7.801-2.026,8.558-6.001c0.013-0.069,0.032-0.135,0.044-0.204    c0.662-4.089-2.116-7.94-6.205-8.603c-22.401-3.627-45.07-1.658-66.1,5.27c15-15,29.189-29.188,42.619-42.617    c46.8-46.713,121.798-48.394,170.637-5.058L213.496,339.3z M454.984,74.612c-6.171-4.352-12.686-8.196-19.476-11.486    c-3.73-1.809-8.214-0.248-10.021,3.479c-0.032,0.066-0.055,0.134-0.085,0.2c-1.657,3.687-0.097,8.045,3.564,9.82    c8.276,4.009,16.089,8.949,23.293,14.701c-2.798,8.813-7.674,16.892-14.401,23.617l-50.479,50.478    c-20.892-18.814-46.489-30.703-74.501-34.478c-4.106-0.552-7.882,2.326-8.435,6.431c-0.01,0.073-0.01,0.145-0.018,0.218    c-0.425,4.02,2.417,7.673,6.449,8.217c24.727,3.333,47.345,13.756,65.88,30.237l-76.311,76.309    c-38.107-34.254-90.675-43.823-136.866-28.712c15.421-15.421,29.596-29.595,42.637-42.636    c20.545-20.466,47.722-33.18,76.555-35.804c4.051-0.369,7.048-3.896,6.798-7.929c-0.004-0.074-0.002-0.146-0.009-0.22    c-0.376-4.125-4.04-7.164-8.148-6.79c-10.553,0.961-20.905,3.135-30.867,6.415c13.767-13.767,25.725-25.725,36.114-36.114    c30.422-30.344,73.625-42.788,115.607-33.284c3.972,0.896,7.912-1.536,8.914-5.456c0.018-0.069,0.041-0.134,0.057-0.203    c0.915-4.04-1.619-8.056-5.658-8.971c-25.21-5.706-50.813-4.34-74.396,3.386c17.991-17.996,22.643-22.654,23.884-23.906    c11.072-11.039,25.772-17.126,41.406-17.126c32.279,0,58.54,26.261,58.54,58.54C455.01,73.902,454.99,74.256,454.984,74.612z" fill="#3d2a20"/></g><g transform="matrix(0.042553190141916275 0 0 0.042553190141916275 77.5 340)" id="L1_8"><path d="M358.392,170.146c-3.369,1.107-6.816,2.241-10.677,3.266v54.615   c0,19.692-16.021,35.714-35.714,35.714s-35.714-16.021-35.714-35.714v-56.813c-1.102-0.354-2.183-0.709-3.249-1.06   c-3.679-1.208-7.235-2.377-11.226-3.371v25.604c0,14.787-12.03,26.817-26.817,26.817s-26.817-12.03-26.817-26.817v-25.604   c-3.977,0.993-7.52,2.158-11.186,3.364c-7.473,2.458-15.201,4.999-26.912,6.242c-4.118,0.438-7.812-2.547-8.25-6.666   c-0.008-0.078-0.007-0.155-0.013-0.233c-2.352,0.11-4.844,0.174-7.531,0.174c-2.686,0-5.176-0.064-7.527-0.174   c-0.006,0.078-0.005,0.155-0.013,0.233c-0.409,3.85-3.663,6.708-7.449,6.709c-0.265,0-0.532-0.015-0.801-0.043   c-11.708-1.243-19.434-3.785-26.904-6.243c-7.188-2.366-14.088-4.633-24.757-5.672v188.89h296.331V164.475   C372.49,165.513,365.584,167.78,358.392,170.146z M133.453,285.4c-4.411,0-8-3.589-8-8s3.589-8,8-8s8,3.589,8,8   S137.864,285.4,133.453,285.4z M165.521,317.468c-4.411,0-8-3.589-8-8s3.589-8,8-8s8,3.589,8,8S169.932,317.468,165.521,317.468z" fill="#ffffff"/><path d="M161.817,169.491c-0.303-4.024,2.638-7.588,6.679-8.017c10.124-1.074,16.771-3.261,23.809-5.575   c6.418-2.111,13.054-4.294,22.276-5.656c2.158-0.318,4.346,0.316,5.997,1.742c1.651,1.425,2.6,3.497,2.6,5.678v34.725   c0,6.517,5.301,11.817,11.817,11.817s11.817-5.301,11.817-11.817v-34.725c0-2.181,0.949-4.253,2.6-5.678   c1.65-1.424,3.837-2.061,5.996-1.742c9.233,1.364,15.882,3.549,22.312,5.661c2.739,0.899,5.326,1.75,8.114,2.541   c3.226,0.915,5.453,3.861,5.453,7.215v62.367c0,11.422,9.292,20.714,20.714,20.714s20.714-9.292,20.714-20.714v-60.556   c0-3.565,2.51-6.638,6.003-7.35c5.615-1.143,10.168-2.64,14.988-4.225c9.183-3.021,18.639-6.13,35.21-6.855v-32.406H81.084v32.406   c16.565,0.727,26.019,3.837,35.197,6.856c7.034,2.314,13.679,4.501,23.799,5.576c4.041,0.429,6.981,3.993,6.679,8.017   c2.352,0.11,4.842,0.174,7.527,0.174C156.973,169.665,159.465,169.601,161.817,169.491z" fill="#6b4833"/><path d="M403.916,156.383v-39.748H462.5c4.142,0,7.5-3.357,7.5-7.5V61.57c0-4.143-3.358-7.5-7.5-7.5H7.5   c-4.142,0-7.5,3.357-7.5,7.5v47.564c0,4.143,3.358,7.5,7.5,7.5h58.584v39.748c0,3.539,2.454,6.497,5.75,7.286v189.696H7.5   c-4.142,0-7.5,3.357-7.5,7.5v47.564c0,4.143,3.358,7.5,7.5,7.5h455c4.142,0,7.5-3.357,7.5-7.5v-47.564c0-4.143-3.358-7.5-7.5-7.5   h-64.334V163.669C401.462,162.88,403.916,159.922,403.916,156.383z M455,400.93H15v-32.564h440V400.93z M86.834,353.365v-188.89   c10.67,1.039,17.57,3.306,24.757,5.672c7.471,2.458,15.196,5,26.904,6.243c0.269,0.028,0.536,0.043,0.801,0.043   c3.786-0.001,7.04-2.859,7.449-6.709c0.008-0.078,0.007-0.155,0.013-0.233c0.302-4.024-2.638-7.588-6.679-8.017   c-10.121-1.075-16.765-3.262-23.799-5.576c-9.178-3.02-18.631-6.13-35.197-6.856v-32.406h307.832v32.406   c-16.571,0.726-26.027,3.835-35.21,6.855c-4.82,1.585-9.373,3.082-14.988,4.225c-3.494,0.712-6.003,3.784-6.003,7.35v60.556   c0,11.422-9.292,20.714-20.714,20.714s-20.714-9.292-20.714-20.714v-62.367c0-3.354-2.227-6.3-5.453-7.215   c-2.788-0.791-5.375-1.642-8.114-2.541c-6.43-2.112-13.078-4.297-22.312-5.661c-2.159-0.318-4.346,0.318-5.996,1.742   c-1.651,1.425-2.6,3.497-2.6,5.678v34.725c0,6.517-5.301,11.817-11.817,11.817s-11.817-5.301-11.817-11.817v-34.725   c0-2.181-0.949-4.253-2.6-5.678c-1.651-1.426-3.838-2.061-5.997-1.742c-9.222,1.362-15.858,3.545-22.276,5.656   c-7.038,2.314-13.685,4.501-23.809,5.575c-4.041,0.429-6.982,3.993-6.679,8.017c0.006,0.078,0.005,0.154,0.013,0.233   c0.438,4.119,4.132,7.104,8.25,6.666c11.711-1.243,19.439-3.784,26.912-6.242c3.666-1.206,7.209-2.371,11.186-3.364v25.604   c0,14.787,12.03,26.817,26.817,26.817s26.817-12.03,26.817-26.817v-25.604c3.991,0.994,7.546,2.163,11.226,3.371   c1.066,0.351,2.146,0.705,3.249,1.06v56.813c0,19.692,16.021,35.714,35.714,35.714s35.714-16.021,35.714-35.714v-54.615   c3.861-1.024,7.308-2.158,10.677-3.266c7.193-2.365,14.098-4.633,24.774-5.671v188.891H86.834z M15,69.07h440v32.564H15V69.07z" fill="#3d2a20"/><path d="M165.521,301.468c-4.411,0-8,3.589-8,8s3.589,8,8,8s8-3.589,8-8S169.932,301.468,165.521,301.468z" fill="#3d2a20"/><path d="M133.453,269.4c-4.411,0-8,3.589-8,8s3.589,8,8,8s8-3.589,8-8S137.864,269.4,133.453,269.4z" fill="#3d2a20"/><rect x="15px" y="368px" width="440px" height="32px" fill="#ffcb59"/><rect x="15px" y="69px" width="440px" height="32px" fill="#ffcb59"/></g><g transform="matrix(0.10638298094272614 0 0 0.10638298094272614 62.5 237.5)" id="L1_9"><path d="M82.056,375.824c0-4.142,3.357-7.5,7.5-7.5h7.794c1.254,0,2.433,0.312,3.471,0.855l40.797-40.797   C127.678,314.441,120,295.906,120,276.191c0-19.715,7.678-38.25,21.618-52.19L224,141.619C237.941,127.678,256.477,120,276.191,120   c19.715,0,38.25,7.678,52.19,21.618l43.989-43.989c-0.397-0.914-0.62-1.922-0.62-2.983v-7.795c0-4.142,3.357-7.5,7.5-7.5   c3.082,0,5.727,1.86,6.88,4.517l16.497-16.497C368.856,33.599,323.953,15,276.192,15c-47.762,0-92.664,18.599-126.437,52.372   l-82.384,82.383c-69.718,69.718-69.718,183.156,0,252.873l19.725-19.725C84.164,381.884,82.056,379.103,82.056,375.824z    M179.561,145.494c0,4.142-3.357,7.5-7.5,7.5s-7.5-3.358-7.5-7.5v-7.795c0-4.142,3.357-7.5,7.5-7.5s7.5,3.358,7.5,7.5V145.494z    M310.063,51.871c2.93-2.929,7.678-2.929,10.607,0l5.512,5.512c2.929,2.929,2.929,7.678,0,10.606   c-1.465,1.464-3.385,2.197-5.304,2.197s-3.839-0.732-5.304-2.197l-5.512-5.512C307.134,59.549,307.134,54.8,310.063,51.871z    M282.425,78.718h7.795c4.143,0,7.5,3.358,7.5,7.5s-3.357,7.5-7.5,7.5h-7.795c-4.143,0-7.5-3.358-7.5-7.5   S278.282,78.718,282.425,78.718z M219.218,58.008c2.93-2.929,7.678-2.929,10.607,0l5.512,5.512c2.929,2.929,2.929,7.678,0,10.606   c-1.465,1.464-3.385,2.197-5.304,2.197s-3.839-0.732-5.304-2.197l-5.512-5.512C216.289,65.686,216.289,60.937,219.218,58.008z    M175.304,63.251c0-4.142,3.357-7.5,7.5-7.5s7.5,3.358,7.5,7.5v7.794c0,4.142-3.357,7.5-7.5,7.5s-7.5-3.358-7.5-7.5V63.251z    M158.019,112.342l5.512-5.511c2.928-2.929,7.677-2.927,10.606,0c2.929,2.929,2.929,7.678-0.001,10.607l-5.512,5.511   c-1.464,1.464-3.384,2.196-5.303,2.196c-1.92,0-3.839-0.732-5.304-2.197C155.089,120.02,155.089,115.271,158.019,112.342z    M102.178,320.168c0,4.142-3.357,7.5-7.5,7.5s-7.5-3.358-7.5-7.5v-7.794c0-4.142,3.357-7.5,7.5-7.5s7.5,3.358,7.5,7.5V320.168z    M121.12,193.854c-1.465,1.464-3.385,2.197-5.304,2.197s-3.839-0.732-5.304-2.197l-5.512-5.512c-2.929-2.929-2.929-7.678,0-10.606   c2.93-2.929,7.678-2.929,10.607,0l5.512,5.512C124.049,186.177,124.049,190.926,121.12,193.854z M102.546,143.803   c0-4.142,3.357-7.5,7.5-7.5s7.5,3.358,7.5,7.5v7.794c0,4.142-3.357,7.5-7.5,7.5s-7.5-3.358-7.5-7.5V143.803z M100.771,228.75   c2.929,2.929,2.929,7.678,0,10.606l-5.512,5.512c-1.465,1.464-3.385,2.197-5.304,2.197s-3.839-0.732-5.304-2.197   c-2.929-2.929-2.929-7.678,0-10.606l5.512-5.512C93.094,225.821,97.842,225.821,100.771,228.75z M50.698,308.514h-7.795   c-4.143,0-7.5-3.358-7.5-7.5s3.357-7.5,7.5-7.5h7.795c4.143,0,7.5,3.358,7.5,7.5S54.841,308.514,50.698,308.514z M73.705,202.481   c-4.143,0-7.5-3.358-7.5-7.5s3.357-7.5,7.5-7.5h7.794c4.143,0,7.5,3.358,7.5,7.5s-3.357,7.5-7.5,7.5H73.705z" fill="#ec6a65"/><path d="M402.628,320.245c69.718-69.718,69.718-183.156,0-252.873l-16.497,16.497   c0.397,0.915,0.62,1.922,0.62,2.983v7.795c0,4.142-3.357,7.5-7.5,7.5c-3.082,0-5.727-1.86-6.88-4.517l-43.989,43.989   C342.322,155.559,350,174.094,350,193.809c0,19.715-7.678,38.25-21.618,52.19L246,328.381C232.059,342.322,213.523,350,193.809,350   c-19.715,0-38.25-7.678-52.19-21.618l-40.797,40.797c2.393,1.253,4.029,3.756,4.029,6.645c0,4.142-3.357,7.5-7.5,7.5h-7.794   c-0.863,0-1.687-0.153-2.459-0.421l-19.725,19.725C101.144,436.401,146.047,455,193.808,455c47.762,0,92.664-18.599,126.437-52.372   L402.628,320.245z M399.878,289.561l-5.512,5.512c-1.465,1.464-3.385,2.197-5.304,2.197s-3.839-0.732-5.304-2.197   c-2.929-2.929-2.929-7.678,0-10.606l5.512-5.512c2.93-2.929,7.678-2.929,10.607,0C402.807,281.883,402.807,286.632,399.878,289.561   z M426.043,189.645h7.794c4.143,0,7.5,3.358,7.5,7.5s-3.357,7.5-7.5,7.5h-7.794c-4.143,0-7.5-3.358-7.5-7.5   S421.9,189.645,426.043,189.645z M402.785,133.526c0-4.142,3.357-7.5,7.5-7.5s7.5,3.358,7.5,7.5v7.795c0,4.142-3.357,7.5-7.5,7.5   s-7.5-3.358-7.5-7.5V133.526z M396.876,228.22c0-4.142,3.357-7.5,7.5-7.5s7.5,3.358,7.5,7.5v7.795c0,4.142-3.357,7.5-7.5,7.5   s-7.5-3.358-7.5-7.5V228.22z M376.968,127.208l5.512-5.511c2.929-2.929,7.678-2.927,10.606,0c2.929,2.929,2.929,7.678-0.001,10.607   l-5.512,5.511c-1.464,1.464-3.384,2.196-5.303,2.196c-1.92,0-3.839-0.732-5.304-2.197   C374.038,134.886,374.038,130.138,376.968,127.208z M368.197,184.97c2.93-2.929,7.678-2.929,10.607,0l5.512,5.512   c2.929,2.929,2.929,7.678,0,10.606c-1.465,1.464-3.385,2.197-5.304,2.197s-3.839-0.732-5.304-2.197l-5.512-5.512   C365.269,192.648,365.269,187.899,368.197,184.97z M354.264,266.111c2.93-2.929,7.678-2.929,10.607,0l5.512,5.512   c2.929,2.929,2.929,7.678,0,10.606c-1.465,1.464-3.385,2.197-5.304,2.197s-3.839-0.732-5.304-2.197l-5.512-5.512   C351.335,273.789,351.335,269.04,354.264,266.111z M331.094,284.593h7.795c4.143,0,7.5,3.358,7.5,7.5s-3.357,7.5-7.5,7.5h-7.795   c-4.143,0-7.5-3.358-7.5-7.5S326.951,284.593,331.094,284.593z M136.641,369.893l-5.512,5.511   c-1.464,1.464-3.384,2.196-5.303,2.196c-1.92,0-3.839-0.732-5.304-2.197c-2.929-2.929-2.929-7.678,0.001-10.607l5.512-5.511   c2.929-2.928,7.678-2.928,10.606,0C139.57,362.215,139.57,366.964,136.641,369.893z M185.386,427.751h-7.795   c-4.143,0-7.5-3.358-7.5-7.5s3.357-7.5,7.5-7.5h7.795c4.143,0,7.5,3.358,7.5,7.5S189.528,427.751,185.386,427.751z    M231.384,386.475c-1.465,1.464-3.385,2.197-5.304,2.197s-3.839-0.732-5.304-2.197l-5.512-5.512c-2.929-2.929-2.929-7.678,0-10.606   c2.93-2.929,7.678-2.929,10.607,0l5.512,5.512C234.313,378.797,234.313,383.546,231.384,386.475z M292.694,359.917l-5.511,5.511   c-1.465,1.464-3.385,2.197-5.304,2.197s-3.839-0.732-5.303-2.196c-2.93-2.929-2.93-7.678-0.001-10.607l5.511-5.511   c2.93-2.929,7.679-2.929,10.606,0C295.623,352.24,295.623,356.988,292.694,359.917z M318.693,371.536c0,4.142-3.357,7.5-7.5,7.5   s-7.5-3.358-7.5-7.5v-7.794c0-4.142,3.357-7.5,7.5-7.5s7.5,3.358,7.5,7.5V371.536z" fill="#ffcb59"/><path d="M413.235,56.765C376.63,20.16,327.96,0,276.192,0c-51.769,0-100.438,20.16-137.044,56.765   l-82.384,82.383c-75.565,75.566-75.565,198.521,0,274.086C93.37,449.84,142.04,470,193.808,470   c51.769,0,100.438-20.16,137.044-56.765l82.384-82.383C488.801,255.286,488.801,132.331,413.235,56.765z M67.372,402.628   c-69.718-69.718-69.718-183.156,0-252.874l82.384-82.383C183.528,33.599,228.431,15,276.192,15   c47.761,0,92.664,18.599,126.436,52.372c69.718,69.718,69.718,183.156,0,252.874l-82.384,82.383   C286.472,436.401,241.569,455,193.808,455C146.047,455,101.144,436.401,67.372,402.628z" fill="#3d2a20"/><path d="M224,141.619l-82.382,82.382c-13.94,13.94-21.618,32.475-21.618,52.19   c0,19.715,7.678,38.25,21.618,52.19C155.559,342.322,174.094,350,193.809,350c19.715,0,38.25-7.678,52.191-21.618l82.382-82.382   c13.94-13.94,21.618-32.475,21.618-52.19c0-19.715-7.678-38.25-21.618-52.19C314.441,127.678,295.906,120,276.191,120   C256.477,120,237.941,127.678,224,141.619z M152.226,317.775C141.117,306.667,135,291.899,135,276.191   c0-15.708,6.117-30.476,17.226-41.583l82.382-82.382C245.715,141.118,260.482,135,276.191,135c15.708,0,30.477,6.117,41.583,17.225   C328.883,163.333,335,178.101,335,193.809c0,15.708-6.117,30.476-17.226,41.583l-82.382,82.382   C224.285,328.882,209.518,335,193.809,335C178.101,335,163.332,328.882,152.226,317.775z" fill="#3d2a20"/><path d="M315.574,67.989c1.465,1.464,3.385,2.197,5.304,2.197s3.839-0.732,5.304-2.197   c2.929-2.929,2.929-7.678,0-10.606l-5.512-5.512c-2.93-2.929-7.678-2.929-10.607,0c-2.929,2.929-2.929,7.678,0,10.606   L315.574,67.989z" fill="#ffffff"/><path d="M379.251,79.352c-4.143,0-7.5,3.358-7.5,7.5v7.795c0,1.061,0.223,2.068,0.62,2.983   c1.154,2.657,3.798,4.517,6.88,4.517c4.143,0,7.5-3.358,7.5-7.5v-7.795c0-1.061-0.223-2.068-0.62-2.983   C384.978,81.212,382.333,79.352,379.251,79.352z" fill="#ffffff"/><path d="M282.425,93.718h7.795c4.143,0,7.5-3.358,7.5-7.5s-3.357-7.5-7.5-7.5h-7.795   c-4.143,0-7.5,3.358-7.5,7.5S278.282,93.718,282.425,93.718z" fill="#ffffff"/><path d="M105.001,177.736c-2.929,2.929-2.929,7.678,0,10.606l5.512,5.512   c1.465,1.464,3.385,2.197,5.304,2.197s3.839-0.732,5.304-2.197c2.929-2.929,2.929-7.678,0-10.606l-5.512-5.512   C112.679,174.808,107.931,174.808,105.001,177.736z" fill="#ffffff"/><path d="M172.061,130.199c-4.143,0-7.5,3.358-7.5,7.5v7.795c0,4.142,3.357,7.5,7.5,7.5s7.5-3.358,7.5-7.5   v-7.795C179.561,133.557,176.203,130.199,172.061,130.199z" fill="#ffffff"/><path d="M126.035,359.286l-5.512,5.511c-2.93,2.929-2.93,7.678-0.001,10.607   c1.465,1.464,3.384,2.197,5.304,2.197c1.919,0,3.839-0.732,5.303-2.196l5.512-5.511c2.93-2.929,2.93-7.678,0.001-10.607   C133.713,356.358,128.964,356.357,126.035,359.286z" fill="#ffffff"/><path d="M89.556,368.324c-4.143,0-7.5,3.358-7.5,7.5c0,3.28,2.108,6.06,5.041,7.079   c0.771,0.268,1.596,0.421,2.459,0.421h7.794c4.143,0,7.5-3.358,7.5-7.5c0-2.889-1.635-5.392-4.029-6.645   c-1.039-0.544-2.218-0.855-3.471-0.855H89.556z" fill="#ffffff"/><path d="M404.376,243.515c4.143,0,7.5-3.358,7.5-7.5v-7.795c0-4.142-3.357-7.5-7.5-7.5s-7.5,3.358-7.5,7.5   v7.795C396.876,240.157,400.233,243.515,404.376,243.515z" fill="#ffffff"/><path d="M331.094,299.593h7.795c4.143,0,7.5-3.358,7.5-7.5s-3.357-7.5-7.5-7.5h-7.795   c-4.143,0-7.5,3.358-7.5,7.5S326.951,299.593,331.094,299.593z" fill="#ffffff"/><path d="M389.271,278.955l-5.512,5.512c-2.929,2.929-2.929,7.678,0,10.606   c1.465,1.464,3.385,2.197,5.304,2.197s3.839-0.732,5.304-2.197l5.512-5.512c2.929-2.929,2.929-7.678,0-10.606   C396.948,276.026,392.2,276.026,389.271,278.955z" fill="#ffffff"/><path d="M359.775,282.229c1.465,1.464,3.385,2.197,5.304,2.197s3.839-0.732,5.304-2.197   c2.929-2.929,2.929-7.678,0-10.606l-5.512-5.512c-2.93-2.929-7.678-2.929-10.607,0c-2.929,2.929-2.929,7.678,0,10.606   L359.775,282.229z" fill="#ffffff"/><path d="M311.193,356.241c-4.143,0-7.5,3.358-7.5,7.5v7.794c0,4.142,3.357,7.5,7.5,7.5s7.5-3.358,7.5-7.5   v-7.794C318.693,359.599,315.336,356.241,311.193,356.241z" fill="#ffffff"/><path d="M185.386,412.751h-7.795c-4.143,0-7.5,3.358-7.5,7.5s3.357,7.5,7.5,7.5h7.795   c4.143,0,7.5-3.358,7.5-7.5S189.528,412.751,185.386,412.751z" fill="#ffffff"/><path d="M282.087,349.311l-5.511,5.511c-2.929,2.929-2.929,7.678,0.001,10.607   c1.464,1.464,3.384,2.196,5.303,2.196s3.839-0.732,5.304-2.197l5.511-5.511c2.929-2.929,2.929-7.678-0.001-10.607   C289.766,346.382,285.017,346.382,282.087,349.311z" fill="#ffffff"/><path d="M225.872,370.357c-2.93-2.929-7.678-2.929-10.607,0c-2.929,2.929-2.929,7.678,0,10.606l5.512,5.512   c1.465,1.464,3.385,2.197,5.304,2.197s3.839-0.732,5.304-2.197c2.929-2.929,2.929-7.678,0-10.606L225.872,370.357z" fill="#ffffff"/><path d="M94.678,304.874c-4.143,0-7.5,3.358-7.5,7.5v7.794c0,4.142,3.357,7.5,7.5,7.5s7.5-3.358,7.5-7.5   v-7.794C102.178,308.231,98.82,304.874,94.678,304.874z" fill="#ffffff"/><path d="M50.698,293.514h-7.795c-4.143,0-7.5,3.358-7.5,7.5s3.357,7.5,7.5,7.5h7.795   c4.143,0,7.5-3.358,7.5-7.5S54.841,293.514,50.698,293.514z" fill="#ffffff"/><path d="M84.652,244.868c1.465,1.464,3.385,2.197,5.304,2.197s3.839-0.732,5.304-2.197l5.512-5.512   c2.929-2.929,2.929-7.678,0-10.606c-2.93-2.929-7.678-2.929-10.607,0l-5.512,5.512C81.724,237.19,81.724,241.939,84.652,244.868z" fill="#ffffff"/><path d="M224.729,74.126c1.465,1.464,3.385,2.197,5.304,2.197s3.839-0.732,5.304-2.197   c2.929-2.929,2.929-7.678,0-10.606l-5.512-5.512c-2.93-2.929-7.678-2.929-10.607,0c-2.929,2.929-2.929,7.678,0,10.606   L224.729,74.126z" fill="#ffffff"/><path d="M182.804,78.545c4.143,0,7.5-3.358,7.5-7.5v-7.794c0-4.142-3.357-7.5-7.5-7.5s-7.5,3.358-7.5,7.5   v7.794C175.304,75.188,178.661,78.545,182.804,78.545z" fill="#ffffff"/><path d="M110.046,159.097c4.143,0,7.5-3.358,7.5-7.5v-7.794c0-4.142-3.357-7.5-7.5-7.5s-7.5,3.358-7.5,7.5   v7.794C102.546,155.739,105.903,159.097,110.046,159.097z" fill="#ffffff"/><path d="M163.321,125.146c1.919,0,3.839-0.732,5.303-2.196l5.512-5.511c2.93-2.929,2.93-7.678,0.001-10.607   c-2.93-2.928-7.679-2.929-10.606,0l-5.512,5.511c-2.93,2.929-2.93,7.678-0.001,10.607   C159.482,124.413,161.401,125.146,163.321,125.146z" fill="#ffffff"/><path d="M88.999,194.981c0-4.142-3.357-7.5-7.5-7.5h-7.794c-4.143,0-7.5,3.358-7.5,7.5s3.357,7.5,7.5,7.5   h7.794C85.642,202.481,88.999,199.124,88.999,194.981z" fill="#ffffff"/><path d="M410.285,148.821c4.143,0,7.5-3.358,7.5-7.5v-7.795c0-4.142-3.357-7.5-7.5-7.5s-7.5,3.358-7.5,7.5   v7.795C402.785,145.463,406.143,148.821,410.285,148.821z" fill="#ffffff"/><path d="M426.043,204.645h7.794c4.143,0,7.5-3.358,7.5-7.5s-3.357-7.5-7.5-7.5h-7.794   c-4.143,0-7.5,3.358-7.5,7.5S421.9,204.645,426.043,204.645z" fill="#ffffff"/><path d="M382.271,140.012c1.919,0,3.839-0.732,5.303-2.196l5.512-5.511c2.93-2.929,2.93-7.678,0.001-10.607   c-2.929-2.928-7.678-2.929-10.606,0l-5.512,5.511c-2.93,2.929-2.93,7.678-0.001,10.607   C378.432,139.28,380.351,140.012,382.271,140.012z" fill="#ffffff"/><path d="M373.709,201.088c1.465,1.464,3.385,2.197,5.304,2.197s3.839-0.732,5.304-2.197   c2.929-2.929,2.929-7.678,0-10.606l-5.512-5.512c-2.93-2.929-7.678-2.929-10.607,0c-2.929,2.929-2.929,7.678,0,10.606   L373.709,201.088z" fill="#ffffff"/></g></defs><g fi:class="KUsePattern"><pattern id="pattern_L1_0" width="350" height="350" patternUnits="userSpaceOnUse"><use xlink:href="#L1_0" x="-350" y="-350"/><use xlink:href="#L1_0" x="0" y="-350"/><use xlink:href="#L1_0" x="350" y="-350"/><use xlink:href="#L1_0" x="-350" y="0"/><use xlink:href="#L1_0" x="0" y="0"/><use xlink:href="#L1_0" x="350" y="0"/><use xlink:href="#L1_0" x="-350" y="350"/><use xlink:href="#L1_0" x="0" y="350"/><use xlink:href="#L1_0" x="350" y="350"/></pattern><rect x="0" y="0" width="100%" height="100%" fill="url(#pattern_L1_0)"/></g><g fi:class="KUsePattern"><pattern id="pattern_L1_1" width="350" height="350" patternUnits="userSpaceOnUse"><use xlink:href="#L1_1" x="-350" y="-350"/><use xlink:href="#L1_1" x="0" y="-350"/><use xlink:href="#L1_1" x="350" y="-350"/><use xlink:href="#L1_1" x="-350" y="0"/><use xlink:href="#L1_1" x="0" y="0"/><use xlink:href="#L1_1" x="350" y="0"/><use xlink:href="#L1_1" x="-350" y="350"/><use xlink:href="#L1_1" x="0" y="350"/><use xlink:href="#L1_1" x="350" y="350"/></pattern><rect x="0" y="0" width="100%" height="100%" fill="url(#pattern_L1_1)"/></g><g fi:class="KUsePattern"><pattern id="pattern_L1_2" width="350" height="350" patternUnits="userSpaceOnUse"><use xlink:href="#L1_2" x="-350" y="-350"/><use xlink:href="#L1_2" x="0" y="-350"/><use xlink:href="#L1_2" x="350" y="-350"/><use xlink:href="#L1_2" x="-350" y="0"/><use xlink:href="#L1_2" x="0" y="0"/><use xlink:href="#L1_2" x="350" y="0"/><use xlink:href="#L1_2" x="-350" y="350"/><use xlink:href="#L1_2" x="0" y="350"/><use xlink:href="#L1_2" x="350" y="350"/></pattern><rect x="0" y="0" width="100%" height="100%" fill="url(#pattern_L1_2)"/></g><g fi:class="KUsePattern"><pattern id="pattern_L1_3" width="350" height="350" patternUnits="userSpaceOnUse"><use xlink:href="#L1_3" x="-350" y="-350"/><use xlink:href="#L1_3" x="0" y="-350"/><use xlink:href="#L1_3" x="350" y="-350"/><use xlink:href="#L1_3" x="-350" y="0"/><use xlink:href="#L1_3" x="0" y="0"/><use xlink:href="#L1_3" x="350" y="0"/><use xlink:href="#L1_3" x="-350" y="350"/><use xlink:href="#L1_3" x="0" y="350"/><use xlink:href="#L1_3" x="350" y="350"/></pattern><rect x="0" y="0" width="100%" height="100%" fill="url(#pattern_L1_3)"/></g><g fi:class="KUsePattern"><pattern id="pattern_L1_4" width="350" height="350" patternUnits="userSpaceOnUse"><use xlink:href="#L1_4" x="-350" y="-350"/><use xlink:href="#L1_4" x="0" y="-350"/><use xlink:href="#L1_4" x="350" y="-350"/><use xlink:href="#L1_4" x="-350" y="0"/><use xlink:href="#L1_4" x="0" y="0"/><use xlink:href="#L1_4" x="350" y="0"/><use xlink:href="#L1_4" x="-350" y="350"/><use xlink:href="#L1_4" x="0" y="350"/><use xlink:href="#L1_4" x="350" y="350"/></pattern><rect x="0" y="0" width="100%" height="100%" fill="url(#pattern_L1_4)"/></g><g fi:class="KUsePattern"><pattern id="pattern_L1_5" width="350" height="350" patternUnits="userSpaceOnUse"><use xlink:href="#L1_5" x="-350" y="-350"/><use xlink:href="#L1_5" x="0" y="-350"/><use xlink:href="#L1_5" x="350" y="-350"/><use xlink:href="#L1_5" x="-350" y="0"/><use xlink:href="#L1_5" x="0" y="0"/><use xlink:href="#L1_5" x="350" y="0"/><use xlink:href="#L1_5" x="-350" y="350"/><use xlink:href="#L1_5" x="0" y="350"/><use xlink:href="#L1_5" x="350" y="350"/></pattern><rect x="0" y="0" width="100%" height="100%" fill="url(#pattern_L1_5)"/></g><g fi:class="KUsePattern"><pattern id="pattern_L1_6" width="350" height="350" patternUnits="userSpaceOnUse"><use xlink:href="#L1_6" x="-350" y="-350"/><use xlink:href="#L1_6" x="0" y="-350"/><use xlink:href="#L1_6" x="350" y="-350"/><use xlink:href="#L1_6" x="-350" y="0"/><use xlink:href="#L1_6" x="0" y="0"/><use xlink:href="#L1_6" x="350" y="0"/><use xlink:href="#L1_6" x="-350" y="350"/><use xlink:href="#L1_6" x="0" y="350"/><use xlink:href="#L1_6" x="350" y="350"/></pattern><rect x="0" y="0" width="100%" height="100%" fill="url(#pattern_L1_6)"/></g><g fi:class="KUsePattern"><pattern id="pattern_L1_7" width="350" height="350" patternUnits="userSpaceOnUse"><use xlink:href="#L1_7" x="-350" y="-350"/><use xlink:href="#L1_7" x="0" y="-350"/><use xlink:href="#L1_7" x="350" y="-350"/><use xlink:href="#L1_7" x="-350" y="0"/><use xlink:href="#L1_7" x="0" y="0"/><use xlink:href="#L1_7" x="350" y="0"/><use xlink:href="#L1_7" x="-350" y="350"/><use xlink:href="#L1_7" x="0" y="350"/><use xlink:href="#L1_7" x="350" y="350"/></pattern><rect x="0" y="0" width="100%" height="100%" fill="url(#pattern_L1_7)"/></g><g fi:class="KUsePattern"><pattern id="pattern_L1_8" width="350" height="350" patternUnits="userSpaceOnUse"><use xlink:href="#L1_8" x="-350" y="-350"/><use xlink:href="#L1_8" x="0" y="-350"/><use xlink:href="#L1_8" x="350" y="-350"/><use xlink:href="#L1_8" x="-350" y="0"/><use xlink:href="#L1_8" x="0" y="0"/><use xlink:href="#L1_8" x="350" y="0"/><use xlink:href="#L1_8" x="-350" y="350"/><use xlink:href="#L1_8" x="0" y="350"/><use xlink:href="#L1_8" x="350" y="350"/></pattern><rect x="0" y="0" width="100%" height="100%" fill="url(#pattern_L1_8)"/></g><g fi:class="KUsePattern"><pattern id="pattern_L1_9" width="350" height="350" patternUnits="userSpaceOnUse"><use xlink:href="#L1_9" x="-350" y="-350"/><use xlink:href="#L1_9" x="0" y="-350"/><use xlink:href="#L1_9" x="350" y="-350"/><use xlink:href="#L1_9" x="-350" y="0"/><use xlink:href="#L1_9" x="0" y="0"/><use xlink:href="#L1_9" x="350" y="0"/><use xlink:href="#L1_9" x="-350" y="350"/><use xlink:href="#L1_9" x="0" y="350"/><use xlink:href="#L1_9" x="350" y="350"/></pattern><rect x="0" y="0" width="100%" height="100%" fill="url(#pattern_L1_9)"/></g></svg>